{"glyphs":{"0":{"ha":717,"x_min":0,"x_max":0,"o":"m 465 1202 b 245 1166 393 1253 305 1220 b 73 767 137 1067 87 909 b 174 447 61 654 75 515 b 224 90 158 328 160 194 b 484 20 275 7 398 -40 b 606 230 551 67 586 154 b 595 969 668 464 657 736 b 465 1202 573 1051 538 1151 z m 566 337 b 484 98 554 259 536 162 b 387 116 444 49 406 61 b 378 466 349 225 360 355 b 507 775 395 571 426 701 b 470 872 543 808 504 857 b 332 846 423 892 369 880 b 181 494 238 760 202 615 b 122 737 126 556 117 658 b 234 1082 128 855 167 983 b 428 1176 272 1138 354 1230 b 531 977 487 1133 512 1044 b 566 337 590 774 598 545 z "},"1":{"ha":308,"x_min":0,"x_max":0,"o":"m 85 1150 b 69 575 76 959 69 767 b 79 282 69 477 71 379 b 127 26 85 200 80 96 b 190 32 140 6 179 12 b 214 304 230 107 211 221 b 218 587 217 398 217 492 b 238 1150 221 775 228 963 b 85 1150 242 1222 88 1223 z "},"2":{"ha":708,"x_min":0,"x_max":0,"o":"m 584 101 b 379 131 507 76 440 94 b 528 349 445 192 496 277 b 622 959 609 533 655 759 b 516 1173 609 1034 579 1125 b 299 1217 457 1219 373 1235 b 131 664 91 1168 92 825 b 176 673 136 644 180 649 b 168 906 160 748 161 830 b 253 1147 176 988 193 1087 b 471 992 377 1271 460 1095 b 420 518 489 833 465 671 b 289 199 389 412 351 296 b 139 244 246 234 197 261 b 169 47 25 211 63 58 b 335 95 230 42 286 61 b 620 57 419 42 513 23 b 584 101 665 72 617 112 z m 237 128 b 180 83 222 111 203 89 b 120 171 130 68 104 130 b 257 156 150 246 219 192 b 259 155 258 156 258 156 b 237 128 252 146 244 137 z "},"3":{"ha":681,"x_min":0,"x_max":0,"o":"m 422 946 b 415 1180 490 1016 517 1126 b 157 1074 333 1225 136 1207 b 205 1074 160 1053 206 1051 b 363 1095 199 1170 363 1194 b 273 991 363 1040 312 1019 b 228 960 254 987 237 978 b 236 910 217 939 223 922 b 294 882 247 892 276 883 b 466 352 482 814 494 514 b 349 91 450 260 418 157 b 145 209 254 0 172 120 b 173 656 103 349 109 523 b 132 664 182 675 141 680 b 92 211 61 531 55 355 b 327 26 121 99 199 -5 b 598 661 579 84 641 448 b 422 946 576 775 518 883 z "},"4":{"ha":640,"x_min":0,"x_max":0,"o":"m 417 1150 b 402 575 408 959 402 767 b 406 370 402 507 403 438 b 141 318 317 370 222 355 b 291 1184 250 588 316 894 b 245 1184 289 1206 245 1206 b 210 727 243 1030 239 879 b 71 290 180 576 134 430 b 93 266 65 276 78 268 b 116 264 101 263 110 262 b 408 328 216 298 306 324 b 411 282 409 313 410 297 b 459 26 417 200 412 96 b 522 32 472 6 511 12 b 546 304 562 107 544 221 b 550 587 549 398 549 492 b 570 1150 553 775 560 963 b 417 1150 574 1222 420 1223 z "},"5":{"ha":714,"x_min":0,"x_max":0,"o":"m 388 970 b 222 902 323 976 269 943 b 233 1150 225 985 228 1068 b 231 1166 233 1156 232 1161 b 495 1179 318 1156 409 1163 b 480 1216 531 1185 510 1222 b 166 1213 374 1198 272 1203 b 145 1204 155 1214 148 1209 b 79 1150 111 1200 80 1182 b 69 869 75 1057 72 963 b 182 822 68 821 137 806 b 201 828 189 822 197 824 b 396 932 252 874 319 950 b 469 861 433 923 455 894 b 504 594 504 779 508 681 b 447 289 499 489 485 388 b 307 92 419 217 380 130 b 147 326 169 20 138 235 b 93 326 149 350 95 351 b 256 31 83 202 122 62 b 542 183 375 4 483 85 b 524 904 659 376 705 734 b 388 970 487 939 439 965 z "},"6":{"ha":599,"x_min":0,"x_max":0,"o":"m 224 430 b 280 716 232 527 251 622 b 478 1160 325 866 384 1032 b 386 1198 514 1209 416 1231 b 118 688 254 1050 167 880 b 102 177 77 530 41 335 b 388 20 146 66 266 -15 b 523 335 510 54 544 228 b 224 430 493 492 327 514 z m 474 269 b 315 63 472 195 425 19 b 220 306 235 95 222 235 b 220 361 220 324 220 343 b 430 415 264 425 366 481 b 474 269 467 378 475 319 z "},"7":{"ha":661,"x_min":0,"x_max":0,"o":"m 516 1200 b 488 1208 510 1206 500 1210 b 92 1204 354 1185 227 1193 b 86 1170 67 1206 60 1177 b 441 1161 200 1143 324 1145 b 441 1161 441 1161 441 1161 b 270 594 381 973 323 784 b 202 312 245 501 221 407 b 175 36 186 229 145 117 b 238 30 183 12 224 14 b 333 286 295 96 308 205 b 417 577 362 383 389 480 b 589 1132 470 763 528 948 b 516 1200 604 1174 560 1199 z "},"8":{"ha":589,"x_min":0,"x_max":0,"o":"m 379 613 b 447 1103 453 756 514 954 b 118 1095 380 1251 188 1232 b 143 697 47 956 71 817 b 91 179 81 538 43 342 b 422 78 136 23 299 -29 b 424 558 570 207 532 416 b 379 613 410 577 395 595 z m 231 1073 b 272 1144 240 1098 251 1128 b 390 1107 317 1177 366 1149 b 412 925 420 1051 417 986 b 340 658 404 833 380 742 b 261 772 310 694 281 731 b 231 1073 217 858 196 981 z m 300 62 b 130 381 137 25 126 280 b 176 648 135 471 151 561 b 228 585 192 626 210 605 b 395 342 294 514 367 438 b 300 62 422 251 414 87 z "},"9":{"ha":599,"x_min":0,"x_max":0,"o":"m 210 1209 b 75 894 88 1175 54 1001 b 375 799 105 738 271 715 b 319 514 367 703 347 607 b 121 69 273 363 215 197 b 212 32 84 20 183 -2 b 481 541 344 180 432 349 b 496 1052 521 699 558 894 b 210 1209 453 1163 333 1244 z m 168 814 b 125 960 132 851 123 910 b 284 1166 127 1034 173 1211 b 378 923 364 1134 376 994 b 378 868 379 905 379 887 b 168 814 335 804 233 748 z "},"\u0000":{"ha":0,"x_min":0,"x_max":0,"o":""},"\n":{"ha":0,"x_min":0,"x_max":0,"o":""},"\r":{"ha":0,"x_min":0,"x_max":0,"o":""}," ":{"ha":396,"x_min":0,"x_max":0,"o":""},"!":{"ha":344,"x_min":0,"x_max":0,"o":"m 90 1129 b 90 675 89 978 88 827 b 96 460 91 604 94 532 b 119 237 99 389 93 303 b 205 237 132 205 191 208 b 241 448 234 299 234 381 b 259 675 248 524 255 600 b 275 1129 269 826 273 978 b 90 1129 276 1216 90 1216 z m 225 139 b 207 149 219 143 213 146 b 161 158 192 155 177 158 b 126 152 149 158 137 156 b 97 139 115 150 106 146 b 78 119 89 134 82 127 b 71 101 74 113 72 107 b 69 90 70 97 69 94 b 73 73 71 84 72 79 b 89 52 76 65 81 57 b 105 41 93 47 98 43 b 135 30 114 35 124 31 b 159 27 143 29 151 28 b 204 36 175 27 190 30 b 239 60 216 40 231 50 b 252 93 248 71 251 79 b 248 111 252 99 250 106 b 225 139 243 123 235 132 z "},"\"":{"ha":444,"x_min":0,"x_max":0,"o":"m 130 1299 b 70 1257 110 1299 65 1285 b 78 1192 74 1235 74 1213 b 87 1132 82 1172 80 1151 b 162 1125 96 1103 145 1106 b 189 1257 193 1160 198 1213 b 130 1299 184 1286 158 1299 z m 371 1257 b 311 1299 365 1286 339 1299 b 251 1257 292 1299 246 1285 b 260 1192 255 1235 255 1213 b 268 1132 263 1172 262 1151 b 343 1125 278 1103 327 1106 b 371 1257 375 1160 379 1213 z "},"”":{"ha":444,"x_min":0,"x_max":0,"o":"m 130 1299 b 70 1257 110 1299 65 1285 b 78 1192 74 1235 74 1213 b 87 1132 82 1172 80 1151 b 162 1125 96 1103 145 1106 b 189 1257 193 1160 198 1213 b 130 1299 184 1286 158 1299 z m 371 1257 b 311 1299 365 1286 339 1299 b 251 1257 292 1299 246 1285 b 260 1192 255 1235 255 1213 b 268 1132 263 1172 262 1151 b 343 1125 278 1103 327 1106 b 371 1257 375 1160 379 1213 z "},"#":{"ha":1117,"x_min":0,"x_max":0,"o":"m 1029 706 b 912 714 990 709 951 712 b 1004 1109 945 845 975 977 b 847 1139 1022 1191 862 1210 b 754 718 816 999 785 859 b 475 711 661 719 568 716 b 568 1109 508 843 539 976 b 411 1139 586 1191 426 1210 b 313 697 379 992 346 845 b 148 678 258 692 203 686 b 159 652 123 675 138 650 b 306 667 208 658 257 663 b 285 573 299 635 292 604 b 236 349 268 498 252 424 b 83 331 185 344 134 338 b 93 305 57 328 72 303 b 229 318 139 310 184 315 b 226 301 228 313 227 307 b 199 165 216 256 210 210 b 178 19 188 117 169 69 b 258 4 184 -14 238 -22 b 312 131 288 42 299 85 b 355 265 324 176 341 220 b 374 328 361 286 367 307 b 669 336 472 333 571 336 b 662 301 667 324 664 313 b 635 165 652 256 646 210 b 614 19 624 117 605 69 b 694 4 620 -14 674 -22 b 748 131 724 42 735 85 b 791 265 760 176 777 220 b 812 335 798 288 805 311 b 963 330 862 334 913 332 b 963 358 989 330 987 356 b 821 368 916 362 869 366 b 870 544 838 426 854 485 b 904 681 881 590 893 636 b 1029 678 946 680 987 679 b 1029 706 1054 677 1053 703 z m 721 573 b 677 371 706 506 691 439 b 383 362 579 372 481 368 b 434 544 401 422 418 483 b 467 677 445 588 456 633 b 746 683 560 681 653 683 b 721 573 738 646 730 610 z "},"$":{"ha":726,"x_min":0,"x_max":0,"o":"m 424 590 b 468 1187 423 791 430 991 b 488 1181 474 1185 481 1183 b 534 901 607 1137 645 976 b 583 866 499 878 558 845 b 504 1224 716 974 658 1175 b 477 1231 495 1227 486 1229 b 487 1275 480 1246 484 1260 b 434 1285 494 1302 440 1309 b 424 1237 431 1269 427 1253 b 87 986 274 1241 131 1130 b 378 412 7 731 224 580 b 383 60 378 294 379 177 b 312 86 358 60 333 69 b 262 260 262 127 243 199 b 214 269 270 284 222 290 b 385 18 162 144 264 21 b 388 -51 386 -5 387 -28 b 429 -51 389 -70 428 -70 b 431 23 430 -26 430 -1 b 453 30 438 25 446 27 b 609 350 585 79 663 216 b 424 590 572 444 495 517 z m 377 641 b 240 993 291 740 227 856 b 415 1191 249 1091 321 1183 b 377 641 382 1009 377 825 z m 489 131 b 432 70 478 102 457 82 b 429 352 432 164 431 258 b 455 315 438 339 447 327 b 489 131 489 263 512 191 z "},"%":{"ha":757,"x_min":0,"x_max":0,"o":"m 277 920 b 323 1025 309 944 320 988 b 221 1222 331 1097 308 1210 b 116 1163 176 1228 134 1199 b 168 894 50 1088 44 916 b 277 920 196 889 253 902 z m 259 1112 b 264 1118 261 1114 263 1116 b 272 1010 275 1083 277 1044 b 241 945 268 984 258 965 b 237 940 239 943 238 941 b 236 942 237 940 236 941 b 218 972 229 949 220 963 b 259 1112 204 1019 226 1079 z m 584 323 b 478 264 539 329 497 300 b 531 -5 413 189 406 17 b 640 21 559 -10 616 3 b 686 126 672 45 682 89 b 584 323 693 198 670 311 z m 635 111 b 604 46 630 85 621 66 b 600 41 602 44 601 42 b 598 43 599 41 599 42 b 580 73 592 50 583 64 b 622 213 567 120 589 180 b 627 219 624 215 626 217 b 635 111 638 184 640 145 z m 620 1248 b 462 1278 638 1330 477 1349 b 314 600 414 1052 365 826 b 241 266 289 489 265 378 b 208 105 229 213 221 158 b 181 -66 196 49 173 -8 b 262 -81 186 -99 243 -107 b 324 83 297 -32 308 25 b 373 241 339 136 358 188 b 462 571 404 350 435 460 b 620 1248 519 796 571 1021 z "},"&":{"ha":699,"x_min":0,"x_max":0,"o":"m 627 194 b 575 199 620 215 588 211 b 550 144 561 185 556 163 b 531 164 544 150 538 157 b 612 247 558 192 584 221 b 543 284 645 277 568 307 b 481 220 523 267 503 244 b 330 453 421 291 370 369 b 457 656 373 520 417 587 b 583 962 512 751 568 852 b 493 1195 594 1051 573 1147 b 301 1178 429 1234 360 1223 b 199 668 151 1064 163 831 b 229 560 207 631 217 595 b 126 84 131 419 -11 239 b 373 44 186 15 293 14 b 500 132 423 63 463 95 b 532 102 511 121 521 111 b 511 63 525 89 518 76 b 562 48 497 40 550 32 b 607 119 580 70 595 93 b 627 194 618 141 636 170 z m 230 919 b 268 1070 234 971 245 1023 b 449 1174 292 1118 382 1233 b 437 886 519 1112 468 954 b 267 616 394 789 326 704 b 266 622 267 618 266 620 b 230 919 239 717 223 821 z m 288 98 b 266 351 153 102 228 289 b 298 402 276 368 287 385 b 448 186 339 324 389 251 b 288 98 401 138 349 96 z "},"'":{"ha":263,"x_min":0,"x_max":0,"o":"m 189 1257 b 130 1299 184 1286 158 1299 b 70 1257 110 1299 65 1285 b 78 1192 74 1235 74 1213 b 87 1132 82 1172 80 1151 b 162 1125 96 1103 145 1106 b 189 1257 193 1160 198 1213 z "},"‘":{"ha":263,"x_min":0,"x_max":0,"o":"m 189 1257 b 130 1299 184 1286 158 1299 b 70 1257 110 1299 65 1285 b 78 1192 74 1235 74 1213 b 87 1132 82 1172 80 1151 b 162 1125 96 1103 145 1106 b 189 1257 193 1160 198 1213 z "},"’":{"ha":263,"x_min":0,"x_max":0,"o":"m 189 1257 b 130 1299 184 1286 158 1299 b 70 1257 110 1299 65 1285 b 78 1192 74 1235 74 1213 b 87 1132 82 1172 80 1151 b 162 1125 96 1103 145 1106 b 189 1257 193 1160 198 1213 z "},"(":{"ha":572,"x_min":0,"x_max":0,"o":"m 389 1288 b 170 1010 291 1233 218 1108 b 73 656 117 899 85 778 b 111 267 61 526 78 392 b 181 75 128 200 154 138 b 289 -102 209 9 237 -52 b 360 -88 304 -116 365 -123 b 305 77 352 -29 327 22 b 253 251 282 133 267 192 b 223 637 223 378 212 506 b 308 965 232 750 260 861 b 391 1109 331 1015 359 1063 b 496 1244 423 1156 468 1195 b 389 1288 529 1301 414 1302 z "},")":{"ha":572,"x_min":0,"x_max":0,"o":"m 498 656 b 405 1001 487 775 456 893 b 183 1288 358 1102 283 1232 b 75 1244 157 1302 43 1301 b 176 1116 102 1197 144 1160 b 260 973 208 1071 236 1023 b 349 637 310 867 339 753 b 321 261 359 510 349 385 b 271 87 307 203 292 143 b 212 -88 248 28 221 -25 b 283 -102 206 -123 268 -116 b 458 256 375 -13 425 135 b 498 656 493 385 511 523 z "},"*":{"ha":397,"x_min":0,"x_max":0,"o":"m 307 1124 b 247 1126 287 1125 267 1125 b 294 1227 264 1159 281 1193 b 254 1239 301 1247 262 1253 b 208 1158 237 1213 222 1186 b 162 1239 193 1186 178 1213 b 122 1227 154 1253 115 1247 b 168 1127 135 1193 151 1160 b 82 1122 139 1127 111 1125 b 82 1096 65 1119 65 1099 b 173 1092 112 1093 142 1092 b 131 1014 159 1065 145 1039 b 179 1005 118 993 168 985 b 208 1055 189 1021 198 1038 b 237 1005 218 1038 227 1021 b 285 1014 248 985 297 993 b 242 1092 270 1040 256 1066 b 307 1093 264 1093 286 1093 b 307 1124 335 1092 335 1124 z "},"+":{"ha":453,"x_min":0,"x_max":0,"o":"m 363 507 b 304 508 343 507 323 508 b 305 646 307 554 309 601 b 154 646 299 717 159 718 b 156 509 152 601 153 555 b 82 504 131 508 107 507 b 82 479 65 502 65 481 b 157 475 107 477 132 475 b 158 449 158 466 158 458 b 186 284 161 393 156 332 b 257 284 199 262 243 265 b 298 449 292 328 293 395 b 301 475 299 458 300 467 b 363 475 321 476 342 476 b 363 507 390 475 390 506 z "},",":{"ha":318,"x_min":0,"x_max":0,"o":"m 232 110 b 101 123 201 144 139 149 b 86 22 66 100 59 55 b 129 2 96 10 113 4 b 107 -48 124 -16 117 -33 b 139 -78 93 -68 122 -82 b 224 -7 178 -67 205 -43 b 232 110 243 28 263 76 z "},"-":{"ha":453,"x_min":0,"x_max":0,"o":"m 363 507 b 82 504 270 509 175 513 b 82 479 65 502 65 481 b 363 475 175 470 270 477 b 363 507 390 475 390 506 z "},".":{"ha":289,"x_min":0,"x_max":0,"o":"m 217 74 b 197 97 213 84 206 91 b 182 106 192 100 187 103 b 144 113 170 110 157 113 b 116 108 134 113 125 112 b 91 97 107 106 99 103 b 76 80 85 93 79 87 b 69 60 71 75 69 68 b 72 46 70 56 71 51 b 91 23 76 37 83 29 b 107 15 96 20 102 18 b 144 8 119 10 131 8 b 173 12 154 7 164 9 b 197 23 182 14 190 18 b 213 40 204 27 209 33 b 219 60 217 46 220 53 b 217 74 218 65 218 70 z "},"/":{"ha":625,"x_min":0,"x_max":0,"o":"m 491 1347 b 272 637 412 1113 344 873 b 70 -76 200 400 133 162 b 114 -85 64 -99 108 -104 b 325 626 186 152 255 389 b 555 1335 396 864 479 1098 b 491 1347 565 1367 500 1375 z "},":":{"ha":307,"x_min":0,"x_max":0,"o":"m 94 610 b 111 601 100 607 105 604 b 154 593 125 595 139 592 b 186 598 165 592 176 594 b 213 610 196 600 205 604 b 231 629 221 615 227 621 b 238 651 236 635 238 643 b 235 667 237 657 236 662 b 213 693 230 678 223 687 b 196 702 208 696 202 699 b 154 710 183 708 168 710 b 121 705 142 711 132 709 b 94 693 111 703 102 699 b 77 674 86 688 81 682 b 69 651 72 668 69 660 b 72 636 70 646 71 641 b 94 610 77 625 84 616 z m 213 504 b 196 514 208 507 202 510 b 154 522 183 519 168 522 b 121 517 142 522 132 520 b 94 504 111 514 102 510 b 77 485 86 500 81 493 b 69 463 72 479 69 471 b 72 447 70 457 71 452 b 94 421 77 436 84 428 b 111 412 100 418 105 415 b 154 404 125 406 139 404 b 186 409 165 403 176 405 b 213 421 196 411 205 415 b 231 440 221 426 227 432 b 238 463 236 446 238 454 b 235 478 237 468 236 473 b 213 504 230 489 223 498 z "},";":{"ha":318,"x_min":0,"x_max":0,"o":"m 237 494 b 99 512 208 537 139 544 b 121 402 55 478 72 420 b 130 399 124 401 127 400 b 129 397 130 399 129 398 b 79 329 117 369 92 355 b 110 300 70 311 98 300 b 219 370 155 302 195 333 b 237 494 242 405 263 455 z m 94 610 b 111 601 100 607 105 604 b 154 593 125 595 139 592 b 186 598 165 592 176 594 b 213 610 196 600 205 604 b 231 629 221 615 227 621 b 238 651 236 635 238 643 b 235 667 237 657 236 662 b 213 693 230 678 223 687 b 196 702 208 696 202 699 b 154 710 183 708 168 710 b 121 705 142 711 132 709 b 94 693 111 703 102 699 b 77 674 86 688 81 682 b 69 651 72 668 69 660 b 72 636 70 646 71 641 b 94 610 77 625 84 616 z "},"<":{"ha":525,"x_min":0,"x_max":0,"o":"m 339 686 b 85 551 269 608 175 595 b 85 509 66 541 62 518 b 315 345 175 476 252 417 b 355 361 328 330 371 341 b 188 511 307 422 251 470 b 446 642 286 524 383 566 b 339 686 490 696 374 726 z "},"=":{"ha":453,"x_min":0,"x_max":0,"o":"m 82 479 b 363 475 175 470 270 477 b 363 507 390 475 390 506 b 82 504 270 509 175 513 b 82 479 65 502 65 481 z m 363 416 b 82 414 270 418 175 423 b 82 388 65 412 65 390 b 363 385 175 379 270 386 b 363 416 390 384 390 416 z "},">":{"ha":525,"x_min":0,"x_max":0,"o":"m 440 551 b 187 686 350 595 256 608 b 79 642 151 726 35 696 b 337 511 142 566 239 524 b 171 361 274 470 219 422 b 211 345 154 341 198 330 b 440 509 273 417 350 476 b 440 551 463 518 460 541 z "},"?":{"ha":558,"x_min":0,"x_max":0,"o":"m 321 153 b 231 89 284 153 232 133 b 321 26 230 45 286 26 b 412 89 358 26 411 46 b 321 153 413 133 356 153 z m 424 1112 b 156 1131 351 1190 241 1199 b 89 791 53 1048 58 907 b 134 795 94 773 137 776 b 208 1114 116 905 108 1039 b 373 1060 270 1161 353 1135 b 358 883 388 1001 379 938 b 220 576 318 777 250 687 b 216 236 190 462 193 350 b 389 269 232 159 409 178 b 437 722 356 424 382 576 b 424 1112 486 854 531 998 z "},"@":{"ha":1063,"x_min":0,"x_max":0,"o":"m 838 1102 b 243 1051 667 1266 393 1216 b 90 389 87 878 37 612 b 294 77 119 265 187 149 b 756 85 437 -19 621 -31 b 725 107 777 103 741 118 b 168 341 500 -54 247 111 b 217 913 105 525 127 742 b 694 1142 306 1082 499 1219 b 935 655 879 1069 946 835 b 830 410 931 574 908 454 b 719 473 780 381 735 424 b 755 811 684 579 726 708 b 643 879 770 867 694 893 b 617 880 636 883 625 883 b 508 936 589 911 551 932 b 420 311 144 967 149 306 b 570 500 488 312 535 395 b 571 494 570 498 571 496 b 750 326 593 409 658 332 b 950 478 834 320 919 407 b 838 1102 1033 674 994 952 z m 563 664 b 438 352 528 516 482 356 b 516 875 361 349 348 875 b 590 804 552 873 580 831 b 563 664 579 758 568 711 z "},"A":{"ha":739,"x_min":0,"x_max":0,"o":"m 538 596 b 493 1266 505 818 490 1042 b 348 1266 493 1334 349 1334 b 350 1108 348 1213 348 1161 b 225 505 322 905 282 703 b -48 580 146 553 55 581 b -48 539 -84 579 -84 539 b 212 462 54 541 139 511 b -27 -108 152 264 74 72 b 12 -120 -37 -125 3 -134 b 252 432 116 52 192 240 b 527 24 375 331 460 173 b 558 -46 537 0 547 -23 b 560 -50 559 -47 560 -49 b 562 -53 561 -51 561 -52 b 569 -68 565 -58 567 -63 b 669 -58 586 -98 674 -107 b 602 262 659 50 625 156 b 538 596 577 373 555 484 z m 266 478 b 279 522 270 493 275 507 b 363 868 312 636 340 751 b 397 585 371 773 382 679 b 456 273 413 480 432 376 b 266 478 403 353 340 424 z "},"B":{"ha":919,"x_min":0,"x_max":0,"o":"m 658 894 b 567 945 633 914 601 932 b 637 1048 597 974 621 1009 b 648 1244 661 1106 674 1185 b 416 1266 605 1342 486 1325 b 243 938 321 1187 277 1052 b 152 465 197 784 171 624 b 142 380 148 437 145 408 b 136 591 139 450 136 521 b 182 1176 134 787 150 982 b 24 1176 194 1246 36 1250 b -20 579 -8 979 -25 779 b 4 281 -18 480 -10 379 b 76 -1 17 185 31 86 b 160 7 91 -31 155 -32 b 160 9 160 8 160 9 b 168 21 165 12 168 16 b 238 740 161 260 191 506 b 350 1105 264 864 295 990 b 433 1231 372 1150 398 1195 b 542 1278 452 1250 511 1300 b 529 1129 577 1255 542 1155 b 370 984 496 1063 441 1005 b 337 897 332 973 313 929 b 339 895 338 896 338 895 b 365 875 344 886 352 879 b 370 873 366 874 368 873 b 389 867 376 871 382 869 b 533 822 441 854 490 855 b 623 687 577 788 605 739 b 633 293 665 563 658 419 b 470 -16 612 193 566 39 b 314 214 339 -91 315 135 b 466 762 311 393 344 622 b 413 783 488 787 430 804 b 256 227 288 640 252 410 b 452 -83 259 106 285 -107 b 738 190 590 -63 688 70 b 789 681 803 344 830 517 b 658 894 769 763 726 841 z "},"C":{"ha":678,"x_min":0,"x_max":0,"o":"m 548 611 b 488 274 531 499 514 385 b 373 -14 465 176 437 67 b 179 103 274 -139 206 16 b 129 550 135 246 126 401 b 191 1021 132 706 146 871 b 263 1198 209 1082 228 1144 b 303 1242 274 1215 287 1232 b 353 1134 372 1282 362 1175 b 389 1127 348 1115 383 1111 b 373 1272 405 1175 414 1234 b 271 1300 344 1298 308 1308 b 120 1194 209 1288 155 1245 b -37 674 15 1046 -22 851 b 23 99 -52 488 -53 273 b 335 -88 77 -25 190 -133 b 507 178 439 -56 479 87 b 593 611 550 319 574 466 b 548 611 596 632 551 633 z "},"D":{"ha":886,"x_min":0,"x_max":0,"o":"m 669 1232 b 405 1282 608 1304 489 1331 b 229 975 303 1222 259 1081 b 139 448 181 804 154 626 b 136 591 137 495 136 543 b 182 1176 134 787 150 982 b 24 1176 194 1246 36 1250 b -20 579 -8 979 -25 779 b 4 281 -18 480 -10 379 b 76 -1 17 185 31 86 b 158 1 90 -29 148 -31 b 161 8 160 3 161 5 b 231 748 175 255 189 503 b 343 1142 253 881 281 1021 b 525 1245 372 1198 454 1316 b 619 985 588 1181 608 1070 b 621 571 638 848 637 709 b 527 179 606 436 572 307 b 460 29 509 127 488 77 b 393 -49 443 -1 415 -41 b 274 250 270 -99 272 189 b 435 731 281 411 315 613 b 390 755 456 752 406 770 b 221 315 272 649 235 466 b 300 -79 210 204 196 -2 b 572 -4 384 -142 511 -64 b 745 384 674 96 717 248 b 785 860 778 540 795 700 b 669 1232 777 987 756 1132 z "},"E":{"ha":631,"x_min":0,"x_max":0,"o":"m 492 101 b 260 -55 455 14 368 -95 b 196 26 234 -46 206 -11 b 357 218 169 133 261 203 b 417 292 391 224 430 254 b 407 309 414 298 411 304 b 328 343 391 332 354 341 b 176 441 266 347 212 380 b 130 683 135 514 128 601 b 300 1184 132 857 191 1047 b 385 1253 325 1214 352 1233 b 459 1130 467 1303 469 1188 b 495 1127 456 1115 492 1113 b 458 1290 509 1181 517 1259 b 326 1298 422 1309 364 1309 b 96 1101 227 1268 150 1186 b 5 422 -24 916 -97 630 b 148 272 39 354 88 305 b 60 181 112 249 82 219 b 69 -33 21 115 19 28 b 287 -102 124 -101 205 -111 b 534 93 412 -88 494 -30 b 492 101 542 115 499 119 z "},"F":{"ha":524,"x_min":0,"x_max":0,"o":"m 864 1233 b 494 1321 863 1392 585 1340 b 254 1265 413 1304 334 1282 b 247 1263 252 1264 249 1264 b 226 1259 240 1262 232 1261 b 35 1268 163 1246 90 1235 b 7 1248 20 1277 -14 1261 b 180 1220 58 1217 119 1213 b 178 1209 179 1216 179 1213 b 144 565 158 995 145 780 b 145 478 144 536 144 507 b 41 420 103 475 64 457 b 82 403 27 397 70 386 b 146 443 99 429 121 440 b 154 243 147 376 150 309 b 202 -63 161 140 167 35 b 284 -63 212 -90 278 -95 b 298 243 304 38 298 140 b 298 409 298 298 298 354 b 332 404 310 407 321 404 b 430 471 379 400 426 418 b 386 475 431 490 389 493 b 299 447 379 440 342 438 b 300 565 299 486 299 526 b 336 1209 303 780 314 995 b 320 1247 337 1225 331 1238 b 327 1249 322 1247 325 1248 b 817 1233 410 1268 816 1392 b 864 1233 817 1211 864 1211 z "},"G":{"ha":794,"x_min":0,"x_max":0,"o":"m 517 699 b 511 689 514 697 512 694 b 427 375 491 583 463 477 b 290 126 396 288 358 192 b 140 250 196 33 155 175 b 129 649 113 380 116 518 b 229 1065 143 789 172 936 b 324 1215 253 1120 281 1173 b 366 1244 337 1227 350 1237 b 401 1256 370 1246 396 1257 b 418 1156 445 1248 430 1182 b 454 1149 410 1138 446 1136 b 355 1305 498 1227 439 1306 b 177 1224 287 1305 224 1270 b -25 771 57 1109 4 930 b 250 64 -60 576 -102 -11 b 437 287 349 85 401 204 b 506 475 464 348 487 411 b 470 186 501 378 490 280 b 355 -109 451 95 417 -23 b 45 -62 280 -33 127 10 b 50 -223 -5 -106 2 -180 b 236 -252 98 -266 176 -262 b 657 334 511 -207 618 92 b 682 671 675 445 684 559 b 517 699 681 742 551 751 z m 152 -220 b 147 -61 32 -218 35 -69 b 329 -141 214 -56 283 -91 b 152 -220 284 -190 226 -222 z "},"H":{"ha":876,"x_min":0,"x_max":0,"o":"m 614 1261 b 579 591 592 1039 579 815 b 588 267 578 483 581 375 b 596 150 591 228 593 189 b 228 494 518 308 389 454 b 192 501 216 497 204 499 b 192 603 192 535 192 569 b 230 1261 196 823 208 1042 b 72 1261 237 1333 79 1336 b 37 591 51 1039 37 815 b 38 484 37 556 37 520 b -37 430 9 473 -17 455 b -77 250 -75 384 -97 308 b -21 261 -68 226 -13 232 b 5 408 -35 309 -25 368 b 38 439 15 420 26 431 b 46 267 40 382 42 324 b 95 -63 53 156 59 43 b 179 -55 107 -98 173 -89 b 191 267 199 51 191 160 b 191 464 191 333 191 398 b 277 436 222 459 251 449 b 629 -43 454 351 580 142 b 632 -48 629 -45 631 -47 b 637 -63 634 -53 635 -58 b 721 -55 649 -98 715 -89 b 733 267 741 51 733 160 b 734 603 733 379 733 491 b 771 1261 738 823 750 1042 b 614 1261 779 1333 621 1336 z "},"I":{"ha":381,"x_min":0,"x_max":0,"o":"m 373 -50 b 224 -51 324 -47 274 -47 b 235 267 242 54 235 161 b 236 603 235 379 235 491 b 273 1261 239 823 252 1042 b 270 1282 274 1269 273 1276 b 353 1276 297 1281 325 1279 b 365 1306 377 1273 394 1303 b 24 1302 252 1320 135 1322 b 36 1270 -8 1296 11 1266 b 121 1279 65 1273 93 1276 b 116 1261 118 1273 117 1267 b 81 591 94 1039 81 815 b 90 267 80 483 83 375 b 138 -59 97 157 102 45 b 39 -79 104 -64 71 -70 b 52 -111 9 -87 26 -116 b 373 -81 159 -89 262 -76 b 373 -50 401 -83 400 -51 z "},"J":{"ha":614,"x_min":0,"x_max":0,"o":"m 488 1303 b 379 1308 452 1306 416 1307 b 349 1307 369 1309 359 1309 b 153 1285 283 1306 217 1299 b 166 1253 122 1278 140 1249 b 281 1269 205 1259 243 1265 b 277 1232 275 1258 273 1246 b 335 702 317 1059 331 879 b 287 147 340 521 340 321 b 199 -23 269 87 247 19 b 57 -26 157 -60 96 -67 b -23 398 -41 74 -37 270 b 278 913 -1 599 87 818 b 259 936 302 924 276 944 b -60 480 75 857 -23 668 b -5 -18 -91 326 -101 117 b 321 -8 75 -131 235 -97 b 500 544 456 132 489 358 b 441 1263 514 783 497 1030 b 437 1274 440 1267 439 1271 b 488 1271 454 1273 471 1273 b 488 1303 516 1269 515 1300 z "},"K":{"ha":722,"x_min":0,"x_max":0,"o":"m 748 16 b 712 35 761 37 726 44 b 552 242 641 -14 569 202 b 410 504 514 329 479 436 b 195 555 351 561 272 574 b 195 575 195 562 195 568 b 379 768 262 633 324 696 b 685 1287 502 928 595 1107 b 639 1295 695 1307 649 1314 b 339 785 552 1119 460 942 b 196 628 295 728 247 676 b 232 1261 199 840 211 1051 b 75 1261 239 1333 82 1336 b 39 591 53 1039 40 815 b 40 502 39 561 40 532 b 25 491 35 498 30 495 b -74 420 -12 472 -46 449 b -42 398 -90 402 -54 393 b 41 439 -19 407 10 423 b 49 267 43 382 45 324 b 98 -63 56 156 61 43 b 182 -55 110 -98 176 -89 b 194 267 201 51 194 160 b 194 498 193 344 194 421 b 288 481 229 503 261 500 b 352 361 323 455 338 401 b 410 204 371 308 389 256 b 561 -30 442 124 473 6 b 748 16 627 -58 708 -48 z "},"L":{"ha":285,"x_min":0,"x_max":0,"o":"m 625 -9 b 136 -44 460 10 294 -1 b 146 267 153 59 146 164 b 147 603 145 379 146 491 b 184 1261 150 823 163 1042 b 27 1261 192 1333 34 1336 b -8 591 5 1039 -8 815 b 1 267 -9 483 -6 375 b 50 -63 8 156 13 43 b 53 -69 51 -65 52 -67 b -77 -121 9 -84 -35 -101 b -54 -148 -104 -133 -74 -157 b 611 -43 155 -55 384 -17 b 625 -9 639 -47 658 -13 z "},"M":{"ha":1244,"x_min":0,"x_max":0,"o":"m 1104 560 b 1096 896 1104 672 1103 784 b 1044 1136 1091 976 1083 1065 b 949 1225 1022 1176 998 1217 b 845 1162 902 1234 868 1198 b 761 948 804 1098 782 1021 b 693 640 733 847 712 744 b 622 163 664 482 640 323 b 628 576 619 301 626 441 b 629 938 630 697 633 818 b 587 1204 626 1025 623 1124 b 495 1311 568 1247 545 1297 b 384 1247 446 1324 408 1285 b 289 1016 339 1177 313 1095 b 203 676 254 904 227 790 b 144 368 181 574 162 471 b 146 603 144 447 145 525 b 183 1261 149 823 161 1042 b 25 1261 190 1333 33 1336 b -10 591 4 1039 -9 815 b -1 267 -10 483 -8 375 b 48 -63 7 156 12 43 b 132 -55 61 -98 126 -89 b 143 37 138 -24 141 6 b 225 529 166 202 194 366 b 385 1142 264 735 305 947 b 475 1279 396 1169 435 1282 b 497 1176 506 1277 498 1195 b 477 584 491 979 486 781 b 492 -145 466 344 447 93 b 652 -130 507 -228 670 -218 b 641 -65 648 -108 644 -87 b 641 -64 641 -65 641 -64 b 718 482 665 119 689 301 b 847 1055 748 674 779 872 b 930 1191 859 1087 888 1182 b 960 1097 966 1198 960 1118 b 954 552 961 915 959 734 b 979 -145 948 322 936 83 b 1139 -130 994 -227 1157 -218 b 1104 560 1093 95 1105 332 z "},"N":{"ha":761,"x_min":0,"x_max":0,"o":"m 628 576 b 629 938 630 697 633 818 b 587 1204 626 1025 623 1124 b 495 1311 568 1247 545 1297 b 384 1247 446 1324 408 1285 b 289 1016 339 1177 313 1095 b 203 676 254 904 227 790 b 144 368 181 574 162 471 b 146 603 144 447 145 525 b 183 1261 149 823 161 1042 b 25 1261 190 1333 33 1336 b -10 591 4 1039 -9 815 b -1 267 -10 483 -8 375 b 48 -63 7 156 12 43 b 133 -55 61 -98 126 -89 b 143 37 138 -24 141 6 b 225 529 166 202 195 366 b 385 1142 264 735 305 947 b 475 1279 396 1169 435 1281 b 497 1176 506 1277 498 1195 b 477 584 491 979 486 781 b 492 -145 466 344 447 93 b 652 -130 507 -228 670 -218 b 628 576 606 100 624 344 z "},"O":{"ha":778,"x_min":0,"x_max":0,"o":"m 447 1279 b 175 1237 359 1340 250 1302 b -34 779 47 1125 -17 944 b 109 403 -49 639 -25 473 b 154 25 92 276 93 140 b 461 -78 210 -81 351 -145 b 614 158 543 -28 588 70 b 603 1007 692 425 678 741 b 447 1279 576 1104 533 1219 z m 581 289 b 480 12 566 195 542 88 b 335 22 434 -45 366 -45 b 313 424 279 143 292 297 b 374 639 325 497 345 570 b 414 722 385 667 398 696 b 442 760 423 735 432 748 b 462 782 447 766 468 787 b 319 882 557 862 389 941 b 123 486 203 784 151 630 b 115 444 120 472 118 458 b 14 743 27 509 8 638 b 152 1143 21 882 70 1030 b 399 1260 202 1213 306 1316 b 534 1034 474 1215 509 1112 b 581 289 609 800 620 531 z "},"P":{"ha":768,"x_min":0,"x_max":0,"o":"m 589 1256 b 358 1279 527 1316 432 1325 b 199 1000 266 1223 226 1098 b 150 761 178 922 162 842 b 183 1261 155 928 166 1095 b 25 1261 190 1333 33 1336 b -10 591 4 1039 -9 815 b -1 267 -10 483 -8 375 b 48 -63 7 156 12 43 b 115 -77 57 -88 93 -91 b 136 -62 125 -76 135 -71 b 202 756 164 211 161 484 b 299 1127 221 881 245 1011 b 378 1241 318 1168 342 1212 b 421 1264 390 1250 406 1261 b 455 1259 442 1268 447 1264 b 530 1080 507 1222 523 1141 b 530 759 543 973 540 866 b 462 439 519 649 497 543 b 353 245 440 375 410 281 b 291 259 325 227 310 226 b 259 443 260 312 258 382 b 434 868 263 594 310 772 b 394 896 461 890 414 912 b 207 500 274 803 221 647 b 279 195 199 405 200 256 b 525 240 357 134 460 185 b 682 563 617 318 657 450 b 704 962 710 694 720 829 b 589 1256 692 1066 666 1180 z "},"Q":{"ha":797,"x_min":0,"x_max":0,"o":"m 731 25 b 564 34 675 32 619 35 b 614 158 586 74 602 117 b 603 1007 692 425 678 741 b 447 1279 576 1104 533 1219 b 175 1237 359 1340 250 1302 b -34 779 47 1125 -17 944 b 109 403 -49 639 -25 473 b 154 25 92 276 93 140 b 189 -25 163 7 175 -9 b 29 -86 135 -41 82 -62 b 52 -114 3 -99 32 -122 b 219 -52 106 -89 162 -69 b 461 -78 287 -107 382 -126 b 541 -1 493 -59 520 -32 b 718 -9 600 0 659 -2 b 731 25 745 -12 765 22 z m 335 22 b 313 424 279 143 292 297 b 374 639 325 497 345 570 b 414 722 385 667 398 696 b 442 760 422 735 432 748 b 462 782 447 766 468 787 b 319 882 557 862 389 941 b 123 486 203 784 151 630 b 115 444 120 472 118 458 b 14 743 27 509 8 638 b 152 1143 21 882 70 1030 b 399 1260 202 1213 306 1316 b 534 1034 474 1215 509 1112 b 581 289 609 800 620 531 b 494 32 567 203 545 105 b 340 13 442 28 391 22 b 335 22 338 16 336 19 z m 368 -18 b 462 -6 399 -13 431 -9 b 368 -18 432 -32 396 -37 z "},"R":{"ha":661,"x_min":0,"x_max":0,"o":"m 555 1283 b 399 1296 514 1309 444 1318 b 281 1133 338 1266 305 1193 b 194 810 239 1030 215 919 b 145 506 174 709 158 607 b 146 603 145 538 145 570 b 183 1261 149 823 161 1042 b 25 1261 190 1333 33 1336 b -10 591 4 1039 -9 815 b -1 267 -10 483 -8 375 b 48 -63 7 156 12 43 b 132 -55 61 -98 126 -89 b 146 117 143 2 146 59 b 159 227 150 153 155 190 b 561 -26 346 158 301 -161 b 542 -2 577 -17 551 -1 b 267 270 426 -14 442 215 b 595 581 412 323 526 432 b 658 1117 671 745 700 940 b 555 1283 643 1179 612 1248 z m 464 705 b 318 473 430 620 383 537 b 179 387 277 434 228 404 b 213 624 190 466 200 545 b 365 1193 242 811 269 1027 b 472 1265 381 1222 431 1297 b 520 1137 503 1242 514 1171 b 464 705 544 995 516 837 z "},"S":{"ha":724,"x_min":0,"x_max":0,"o":"m 505 925 b 554 891 470 902 528 870 b 635 1121 623 945 653 1036 b 455 1302 615 1214 544 1277 b -14 995 240 1362 36 1199 b 430 237 -97 654 288 485 b 433 -3 471 167 488 65 b 224 -3 378 -69 280 -63 b 182 186 177 47 161 121 b 134 195 190 210 142 216 b 433 -66 58 12 264 -154 b 567 307 574 8 640 161 b 286 645 501 438 381 534 b 155 1071 188 760 117 917 b 259 1233 171 1134 208 1191 b 469 1248 316 1280 404 1277 b 505 925 597 1189 627 1007 z "},"T":{"ha":611,"x_min":0,"x_max":0,"o":"m 892 1251 b 505 1287 764 1278 634 1290 b 357 1276 479 1329 378 1326 b 0 1192 236 1261 116 1234 b 23 1165 -28 1182 2 1158 b 351 1240 130 1201 240 1226 b 317 591 331 1024 318 808 b 327 267 317 483 320 375 b 376 -63 334 156 339 43 b 460 -55 388 -98 454 -89 b 472 267 479 51 472 160 b 473 603 471 379 472 491 b 509 1251 476 820 488 1036 b 879 1217 633 1254 757 1243 b 892 1251 906 1211 925 1244 z "},"U":{"ha":763,"x_min":0,"x_max":0,"o":"m 507 1261 b 506 1244 507 1255 506 1250 b 419 729 483 1072 453 900 b 273 198 383 551 345 367 b 186 66 256 160 229 84 b 171 78 175 61 175 59 b 168 141 166 100 167 118 b 193 628 171 303 184 465 b 163 1184 203 807 224 1012 b 6 1154 138 1253 -23 1231 b 43 614 69 989 47 787 b 41 311 40 513 35 412 b 78 101 45 243 44 162 b 273 96 128 9 216 11 b 444 603 370 241 407 436 b 474 745 455 650 465 698 b 472 591 473 694 472 643 b 481 267 472 483 474 375 b 530 -63 489 156 494 43 b 614 -55 543 -98 608 -89 b 626 267 634 51 626 160 b 628 603 626 379 626 491 b 665 1261 631 823 643 1042 b 507 1261 672 1333 514 1336 z "},"V":{"ha":669,"x_min":0,"x_max":0,"o":"m 635 1299 b 542 803 572 1147 561 965 b 456 174 518 593 500 381 b 397 -14 443 112 431 41 b 342 5 369 -60 354 -40 b 307 226 325 75 316 154 b 266 550 293 334 279 442 b 157 1194 241 761 231 992 b 0 1163 132 1262 -29 1240 b 118 550 74 971 87 752 b 181 209 135 436 151 320 b 276 -21 203 125 224 49 b 390 -75 301 -55 346 -88 b 473 40 437 -61 458 -2 b 575 637 537 229 551 440 b 620 1020 590 764 604 892 b 675 1292 632 1110 644 1206 b 635 1299 682 1312 642 1316 z "},"W":{"ha":1190,"x_min":0,"x_max":0,"o":"m 1186 1303 b 1108 1102 1145 1243 1125 1172 b 1055 805 1084 1004 1068 905 b 972 168 1026 593 1011 379 b 912 -25 961 107 950 26 b 858 19 879 -69 865 -11 b 826 268 840 99 834 187 b 794 599 815 378 803 488 b 755 1254 777 817 768 1036 b 592 1258 750 1330 592 1329 b 467 197 550 904 542 546 b 403 -5 452 129 437 56 b 344 -10 381 -43 360 -59 b 308 209 323 57 317 139 b 269 529 295 316 282 422 b 157 1194 242 747 233 985 b 0 1163 132 1262 -29 1240 b 120 536 76 967 89 742 b 188 186 138 419 157 301 b 290 -33 209 108 232 27 b 402 -70 319 -64 359 -93 b 483 63 448 -47 468 18 b 589 678 547 259 567 473 b 614 966 599 774 607 870 b 642 633 622 855 631 744 b 785 13 664 427 680 195 b 892 -79 806 -23 845 -79 b 983 11 942 -79 968 -29 b 1038 260 1013 90 1025 177 b 1082 607 1056 375 1068 491 b 1135 998 1097 738 1114 868 b 1222 1288 1151 1094 1169 1205 b 1186 1303 1234 1308 1196 1318 z "},"X":{"ha":643,"x_min":0,"x_max":0,"o":"m 781 1299 b 477 795 610 1198 534 973 b 367 418 437 671 405 543 b 323 544 352 460 337 502 b 166 1254 246 771 182 1014 b 6 1254 161 1330 0 1328 b 126 677 21 1060 69 863 b 304 231 171 531 224 371 b 263 136 291 199 278 167 b 79 -69 225 56 171 -43 b 92 -102 47 -77 65 -110 b 336 177 217 -67 288 55 b 434 51 366 132 398 90 b 685 -92 501 -20 591 -68 b 699 -58 712 -99 731 -65 b 485 164 601 -38 533 83 b 395 347 451 222 422 284 b 608 1006 466 567 516 793 b 810 1279 652 1109 712 1216 b 781 1299 831 1292 796 1308 z "},"Y":{"ha":840,"x_min":0,"x_max":0,"o":"m 679 1263 b 519 1268 664 1324 546 1321 b 515 1261 517 1266 516 1264 b 515 1259 515 1261 515 1260 b 513 1244 514 1255 513 1250 b 453 745 492 1078 475 911 b 348 212 430 566 406 382 b 272 79 333 169 314 104 b 253 86 257 70 260 72 b 243 147 243 107 244 126 b 223 621 237 305 227 463 b 158 1184 217 805 222 1009 b 2 1154 134 1253 -28 1231 b 74 607 67 985 63 785 b 101 317 80 510 85 412 b 163 110 113 245 121 171 b 356 110 219 29 302 19 b 485 607 441 253 460 445 b 542 1092 510 768 528 930 b 570 488 575 893 580 687 b 520 132 565 369 558 246 b 372 -52 495 55 461 -35 b 379 -91 342 -58 351 -92 b 688 240 556 -81 644 89 b 731 929 752 461 751 701 b 679 1263 721 1041 705 1153 z "},"Z":{"ha":682,"x_min":0,"x_max":0,"o":"m 544 361 b 594 1046 618 573 658 827 b 454 1265 570 1128 529 1219 b 202 1290 379 1310 284 1316 b 15 636 -50 1210 -44 840 b 63 645 21 615 69 620 b 133 1198 22 813 7 1061 b 359 1243 184 1253 292 1297 b 440 1090 402 1207 425 1142 b 439 576 485 929 471 738 b 235 93 406 408 342 230 b 81 168 190 133 144 170 b 63 -64 -67 165 -78 -34 b 278 -8 134 -79 212 -50 b 331 -41 295 -20 312 -32 b 569 -94 406 -78 487 -95 b 569 -49 610 -94 610 -48 b 322 24 480 -49 396 -24 b 370 67 340 38 356 52 b 544 361 450 151 505 252 z m 146 3 b 81 -18 127 -10 109 -24 b 25 64 45 -10 23 29 b 138 103 29 130 95 130 b 202 54 161 88 182 71 b 146 3 186 34 167 16 z "},"[":{"ha":494,"x_min":0,"x_max":0,"o":"m 389 1335 b 135 1331 305 1336 218 1340 b 119 1300 115 1329 111 1311 b 94 1260 104 1291 94 1278 b 71 -65 79 818 65 377 b 120 -110 71 -91 94 -106 b 124 -111 121 -110 123 -111 b 356 -107 197 -122 283 -117 b 347 -61 396 -102 380 -62 b 203 -64 302 -58 252 -59 b 246 1260 223 377 230 819 b 240 1284 246 1269 244 1277 b 389 1282 290 1282 340 1282 b 389 1335 437 1281 437 1334 z "},"\\":{"ha":625,"x_min":0,"x_max":0,"o":"m 555 -76 b 353 637 492 162 425 400 b 134 1347 281 873 213 1113 b 71 1335 125 1375 60 1367 b 300 626 146 1098 229 864 b 511 -85 370 389 439 152 b 555 -76 517 -104 561 -99 z "},"]":{"ha":494,"x_min":0,"x_max":0,"o":"m 401 1259 b 375 1300 400 1278 390 1291 b 359 1331 384 1311 379 1329 b 105 1335 276 1340 189 1336 b 105 1282 58 1334 57 1281 b 255 1283 154 1282 205 1282 b 248 1259 250 1277 248 1269 b 291 -64 264 818 272 377 b 147 -61 243 -59 192 -58 b 138 -107 115 -62 98 -102 b 370 -111 211 -117 297 -122 b 374 -110 372 -111 373 -110 b 423 -65 400 -106 423 -91 b 401 1259 430 377 416 818 z "},"^":{"ha":390,"x_min":0,"x_max":0,"o":"m 320 1127 b 196 1282 306 1189 286 1300 b 71 1107 125 1267 96 1163 b 115 1098 61 1086 106 1080 b 149 1173 126 1123 137 1149 b 193 1238 158 1190 173 1222 b 194 1185 194 1220 194 1191 b 205 1104 197 1159 198 1130 b 320 1127 217 1053 333 1067 z "},"_":{"ha":453,"x_min":0,"x_max":0,"o":"m 363 36 b 82 33 270 38 175 43 b 82 8 65 32 65 10 b 363 5 175 -1 270 6 b 363 36 390 4 390 36 z "},"`":{"ha":278,"x_min":0,"x_max":0,"o":"m 171 1294 b 98 1278 145 1302 118 1296 b 95 1135 62 1243 59 1170 b 179 1151 116 1114 175 1111 b 182 1203 180 1169 177 1184 b 205 1246 187 1219 196 1231 b 171 1294 218 1268 188 1289 z "},"a":{"ha":675,"x_min":0,"x_max":0,"o":"m 679 468 b 530 55 657 376 585 55 b 556 574 493 55 544 493 b 359 593 568 659 394 668 b 251 646 331 623 294 643 b 163 21 -112 677 -108 17 b 338 300 250 23 303 157 b 519 6 345 148 386 -5 b 725 459 630 14 699 342 b 679 468 731 483 685 489 z m 182 63 b 260 586 105 60 92 585 b 336 508 298 584 328 534 b 182 63 301 345 239 68 z "},"b":{"ha":690,"x_min":0,"x_max":0,"o":"m 717 476 b 571 383 676 430 625 403 b 354 652 565 531 496 661 b 143 276 246 646 180 448 b 146 474 143 342 144 408 b 337 929 247 605 308 769 b 266 1229 351 1010 386 1207 b 65 1038 163 1248 93 1116 b -15 539 7 882 -6 705 b -21 72 -23 384 -25 228 b 145 60 -19 -3 131 -6 b 149 67 147 62 148 64 b 353 620 160 155 249 622 b 394 332 405 619 412 476 b 357 320 382 328 369 325 b 187 136 273 292 193 224 b 186 129 186 133 186 131 b 298 -14 184 51 217 -11 b 570 342 468 -20 563 165 b 763 457 643 365 713 397 b 717 476 782 480 732 493 z m 171 858 b 197 1051 178 922 185 987 b 231 1173 204 1089 209 1140 b 294 1154 257 1210 281 1191 b 297 968 313 1096 305 1027 b 148 550 276 825 227 675 b 171 858 153 653 160 756 z m 284 37 b 231 125 237 32 232 92 b 231 125 231 125 231 125 b 388 287 236 211 309 258 b 284 37 367 159 328 41 z "},"c":{"ha":371,"x_min":0,"x_max":0,"o":"m 380 465 b 196 37 351 348 275 38 b 218 606 85 36 109 593 b 239 545 239 608 248 585 b 291 533 231 510 282 503 b 217 654 312 606 272 652 b 193 5 -93 665 -126 -15 b 423 457 321 13 390 324 b 380 465 429 479 385 484 z "},"d":{"ha":651,"x_min":0,"x_max":0,"o":"m 655 460 b 506 47 633 368 561 47 b 493 469 480 47 492 450 b 648 780 563 561 613 670 b 691 1123 681 886 711 1011 b 566 1220 680 1184 636 1242 b 390 967 464 1188 415 1059 b 340 611 372 905 350 765 b 251 646 315 631 285 644 b 163 21 -112 677 -108 17 b 338 299 249 23 303 157 b 495 -2 352 129 396 -4 b 701 451 606 0 675 334 b 655 460 707 475 660 481 z m 526 923 b 560 1120 534 989 542 1056 b 627 1172 568 1148 594 1215 b 649 1038 653 1138 651 1079 b 617 837 647 970 634 903 b 496 545 589 736 551 635 b 526 923 500 672 509 798 z m 334 500 b 182 63 299 336 238 68 b 260 586 105 60 92 585 b 335 512 296 584 325 539 b 334 500 334 508 334 504 z "},"e":{"ha":371,"x_min":0,"x_max":0,"o":"m 380 465 b 196 37 351 348 275 38 b 132 404 129 37 111 241 b 228 442 167 406 204 423 b 291 542 262 467 284 502 b 217 654 305 608 269 652 b 193 5 -93 665 -126 -15 b 423 457 321 13 390 324 b 380 465 429 479 385 484 z m 218 606 b 241 544 239 608 251 584 b 192 473 232 516 216 491 b 141 450 177 462 159 454 b 139 450 140 450 139 450 b 218 606 154 536 181 602 z "},"f":{"ha":371,"x_min":0,"x_max":0,"o":"m 389 481 b 156 418 330 411 242 390 b 158 477 157 435 157 466 b 312 788 228 569 278 678 b 356 1131 346 894 376 1019 b 231 1228 344 1192 301 1250 b 54 975 128 1196 80 1067 b -10 420 5 797 -4 605 b -11 407 -10 420 -11 407 b 31 122 -13 314 -8 207 b 222 21 61 55 144 -21 b 282 196 283 53 290 135 b 193 375 274 267 243 329 b 431 463 280 361 372 395 b 389 481 448 484 403 497 z m 190 931 b 225 1128 199 997 206 1064 b 292 1180 233 1156 259 1223 b 314 1046 318 1146 315 1087 b 281 845 312 978 299 911 b 160 553 254 744 216 643 b 190 931 165 680 174 806 z m 233 212 b 205 53 237 188 246 55 b 160 212 173 51 162 193 b 154 359 155 261 153 310 b 233 212 195 321 222 269 z "},"g":{"ha":676,"x_min":0,"x_max":0,"o":"m 692 452 b 546 215 658 365 605 288 b 534 572 545 334 540 453 b 349 603 530 652 383 661 b 251 646 322 627 289 643 b 163 21 -112 677 -108 17 b 351 354 260 23 316 193 b 356 51 355 253 357 152 b 356 0 356 34 356 17 b 319 -42 343 -14 331 -28 b 83 -562 204 -177 52 -371 b 252 -684 97 -647 167 -702 b 386 -593 307 -673 350 -635 b 537 -102 499 -457 526 -272 b 546 147 543 -19 546 64 b 733 444 624 237 695 333 b 692 452 740 465 699 470 z m 182 63 b 260 586 105 60 92 585 b 336 508 298 584 328 534 b 182 63 301 345 239 68 z m 345 -219 b 326 -451 339 -296 338 -375 b 276 -610 318 -505 312 -567 b 231 -644 265 -625 250 -639 b 139 -518 162 -659 139 -569 b 354 -74 140 -350 248 -200 b 345 -219 352 -122 349 -171 z "},"h":{"ha":635,"x_min":0,"x_max":0,"o":"m 644 471 b 597 231 628 391 617 310 b 517 49 587 188 565 84 b 517 49 517 49 517 49 b 376 655 457 55 625 704 b 144 204 285 637 197 384 b 146 474 142 294 143 384 b 337 929 247 605 308 769 b 266 1229 351 1010 386 1207 b 65 1038 163 1248 93 1116 b -15 539 7 882 -6 705 b -21 72 -23 384 -25 228 b 146 66 -19 -5 140 -7 b 378 625 183 188 305 621 b 483 0 439 628 107 -41 b 511 10 492 1 502 5 b 619 159 572 27 601 101 b 684 463 651 258 663 361 b 644 471 689 484 648 489 z m 171 858 b 197 1051 178 922 185 987 b 231 1173 204 1089 209 1140 b 294 1154 257 1210 281 1191 b 297 968 313 1096 305 1027 b 148 550 277 825 228 675 b 171 858 153 653 160 756 z "},"i":{"ha":321,"x_min":0,"x_max":0,"o":"m 325 468 b 176 55 302 376 231 55 b 201 574 138 55 190 493 b -2 574 214 665 12 669 b 165 6 -17 469 -70 -13 b 371 459 275 14 345 342 b 325 468 376 483 330 489 z m 38 695 b 58 684 45 692 52 688 b 108 675 74 678 91 675 b 147 681 122 675 134 677 b 179 695 158 684 169 688 b 199 718 188 701 195 708 b 208 745 205 725 208 734 b 204 763 207 751 205 757 b 179 794 199 776 190 786 b 159 805 172 797 165 801 b 108 814 142 811 126 814 b 70 808 95 815 82 813 b 38 794 59 806 48 801 b 18 771 29 788 22 781 b 9 745 12 764 9 755 b 13 726 10 738 11 732 b 38 695 18 713 27 703 z "},"j":{"ha":315,"x_min":0,"x_max":0,"o":"m 331 452 b 185 215 297 365 245 288 b 173 572 184 334 180 453 b -20 572 169 663 -24 662 b -5 51 -10 399 -4 225 b -5 0 -5 34 -5 17 b -42 -42 -18 -14 -30 -28 b -278 -562 -157 -177 -309 -371 b -109 -684 -264 -647 -194 -702 b 25 -593 -54 -673 -11 -635 b 177 -102 138 -457 165 -272 b 185 147 182 -19 185 64 b 372 444 263 237 334 333 b 331 452 379 465 338 470 z m -15 -219 b -35 -451 -22 -296 -23 -375 b -84 -610 -43 -505 -49 -567 b -130 -644 -96 -625 -111 -639 b -222 -518 -199 -659 -222 -569 b -7 -74 -221 -350 -112 -200 b -15 -219 -9 -122 -12 -171 z m -12 695 b 8 684 -5 692 2 688 b 59 675 25 678 41 675 b 97 681 72 675 85 677 b 129 695 108 684 119 688 b 149 718 138 701 145 708 b 158 745 155 725 158 734 b 154 763 157 751 156 757 b 129 794 149 776 140 786 b 109 805 122 797 115 801 b 59 814 93 811 76 814 b 20 808 45 815 33 813 b -12 794 9 806 -2 801 b -32 771 -21 788 -28 781 b -41 745 -38 764 -41 755 b -37 726 -40 738 -38 732 b -12 695 -32 713 -23 703 z "},"k":{"ha":538,"x_min":0,"x_max":0,"o":"m 543 468 b 382 55 521 376 437 55 b 350 255 365 55 343 147 b 467 467 416 304 460 380 b 340 647 474 540 433 657 b 193 422 252 639 214 488 b 161 313 182 386 171 350 b 143 301 155 310 148 306 b 146 474 143 359 144 417 b 337 929 247 605 308 769 b 266 1229 351 1010 386 1207 b 65 1038 163 1248 93 1116 b -15 539 7 882 -6 705 b -21 72 -23 384 -25 228 b 144 54 -19 -1 123 -6 b 145 57 144 55 144 56 b 172 185 153 100 162 143 b 371 6 199 80 271 -2 b 589 459 481 14 563 342 b 543 468 595 483 548 489 z m 171 858 b 197 1051 178 922 185 987 b 231 1173 204 1089 209 1140 b 294 1154 257 1210 281 1191 b 297 968 313 1096 305 1027 b 148 550 277 825 228 675 b 171 858 153 653 160 756 z m 207 326 b 309 585 230 413 255 512 b 358 595 324 606 351 635 b 335 490 363 563 344 519 b 207 326 314 425 275 347 z "},"l":{"ha":303,"x_min":0,"x_max":0,"o":"m 306 460 b 157 47 283 368 212 47 b 144 469 131 47 143 450 b 298 780 214 561 264 670 b 342 1123 332 886 362 1011 b 217 1220 331 1184 287 1242 b 40 967 114 1188 66 1059 b 146 -2 -8 792 -96 -6 b 352 451 257 -1 326 334 b 306 460 357 475 311 481 z m 177 923 b 211 1120 185 989 193 1056 b 278 1172 219 1148 245 1215 b 300 1038 304 1138 301 1079 b 267 837 298 970 285 903 b 146 545 240 736 202 635 b 177 923 151 672 160 798 z "},"m":{"ha":951,"x_min":0,"x_max":0,"o":"m 960 471 b 913 231 943 391 933 310 b 833 49 902 188 881 84 b 832 49 832 49 832 49 b 692 655 772 55 941 704 b 508 347 623 642 558 495 b 368 655 514 513 499 681 b 148 246 284 639 202 421 b 152 302 149 265 151 283 b 183 586 159 397 168 492 b 3 586 197 669 16 673 b -19 290 -11 488 -23 390 b 40 22 -16 206 -9 93 b 129 30 58 -5 117 -1 b 138 66 133 42 136 54 b 369 625 174 189 297 621 b 293 201 406 627 301 385 b 294 61 285 154 285 105 b 393 16 302 23 364 12 b 471 78 430 20 466 37 b 472 81 471 79 471 80 b 693 625 512 220 623 621 b 799 0 755 628 422 -41 b 826 10 807 1 817 5 b 935 159 887 27 916 101 b 1000 463 967 258 978 361 b 960 471 1004 484 963 489 z "},"n":{"ha":629,"x_min":0,"x_max":0,"o":"m 638 471 b 591 231 621 391 611 310 b 511 49 580 188 559 84 b 510 49 510 49 510 49 b 369 655 450 55 619 704 b 148 239 284 638 202 415 b 152 302 149 260 150 281 b 183 586 159 397 168 492 b 3 586 197 669 16 673 b -19 290 -11 488 -23 390 b 40 22 -16 206 -9 93 b 129 30 58 -5 117 -1 b 136 54 132 38 134 46 b 137 56 136 55 136 56 b 371 625 169 165 297 621 b 477 0 433 628 100 -41 b 504 10 485 1 495 5 b 613 159 565 27 594 101 b 678 463 644 258 656 361 b 638 471 682 484 641 489 z "},"o":{"ha":458,"x_min":0,"x_max":0,"o":"m 470 475 b 343 418 431 453 388 431 b 301 558 336 468 322 517 b 187 641 278 603 240 640 b 75 556 134 642 87 608 b 73 525 73 546 72 535 b 22 497 52 521 34 512 b 39 42 -69 381 -88 140 b 223 17 89 3 162 -6 b 315 132 270 34 298 87 b 346 384 342 204 353 296 b 501 454 401 398 453 425 b 470 475 524 468 486 484 z m 122 549 b 217 597 131 593 176 623 b 279 489 251 574 268 527 b 295 408 286 463 291 436 b 191 425 260 405 225 408 b 187 427 190 426 189 426 b 189 429 188 428 188 428 b 121 526 230 480 179 519 b 122 549 120 534 121 542 z m 275 159 b 215 52 264 121 250 74 b 149 99 176 27 156 62 b 167 395 131 186 125 311 b 298 375 211 375 255 370 b 275 159 303 302 295 226 z "},"p":{"ha":700,"x_min":0,"x_max":0,"o":"m 727 476 b 580 383 686 430 635 403 b 364 652 575 531 506 661 b 169 345 270 646 208 497 b 181 586 172 425 176 506 b 1 586 186 672 6 673 b -17 -38 -11 378 -20 170 b -4 -344 -16 -140 -12 -242 b 35 -649 3 -446 7 -550 b 130 -640 47 -692 124 -679 b 146 -332 147 -539 143 -435 b 155 -27 149 -230 152 -128 b 158 66 156 4 157 35 b 159 67 158 66 159 67 b 363 620 170 155 258 622 b 404 332 415 619 422 476 b 367 320 391 328 379 325 b 197 136 283 291 203 224 b 196 129 196 133 196 131 b 308 -14 194 51 227 -11 b 580 342 477 -20 573 165 b 773 457 653 365 723 397 b 727 476 792 480 742 493 z m 294 37 b 241 125 246 32 242 92 b 241 125 241 125 241 125 b 398 287 246 211 319 258 b 294 37 377 159 338 41 z "},"q":{"ha":679,"x_min":0,"x_max":0,"o":"m 749 450 b 699 460 755 476 704 483 b 493 163 672 343 605 218 b 521 576 498 301 505 439 b 358 593 529 646 387 654 b 251 646 331 623 294 643 b 163 21 -112 677 -108 17 b 332 276 245 22 297 142 b 328 144 330 232 329 188 b 363 -395 324 -34 324 -220 b 536 -663 382 -484 427 -645 b 658 -417 665 -684 663 -497 b 499 121 648 -234 597 -39 b 749 450 633 171 719 317 z m 182 63 b 260 586 105 60 92 585 b 336 508 298 584 328 534 b 182 63 301 345 239 68 z m 603 -331 b 550 -622 607 -361 626 -671 b 512 -512 519 -602 517 -544 b 496 -325 504 -450 500 -387 b 491 50 488 -200 488 -75 b 603 -331 550 -69 585 -203 z "},"r":{"ha":424,"x_min":0,"x_max":0,"o":"m 409 455 b 325 648 354 452 386 626 b 226 558 273 667 241 594 b 153 310 193 478 170 395 b 183 586 160 402 169 494 b 3 586 197 669 16 673 b -19 290 -11 488 -23 390 b 40 22 -16 206 -9 93 b 129 30 58 -5 117 -1 b 140 79 135 46 138 62 b 240 507 171 222 192 368 b 285 605 251 540 263 577 b 332 563 318 650 328 597 b 408 426 337 506 337 430 b 409 455 434 424 434 457 z "},"s":{"ha":335,"x_min":0,"x_max":0,"o":"m 344 478 b 181 344 284 444 228 397 b 118 435 157 374 134 405 b 136 589 98 476 95 558 b 218 523 189 630 222 573 b 266 523 216 500 263 501 b 97 625 279 628 182 669 b -12 502 49 600 7 553 b 23 292 -43 423 -24 359 b 87 198 39 270 64 235 b 86 197 86 198 86 198 b 92 12 63 146 32 51 b 278 112 159 -31 264 47 b 200 319 294 190 249 256 b 363 464 247 374 303 420 b 344 478 377 474 353 483 z m 137 40 b 92 78 115 19 92 52 b 107 164 90 106 97 136 b 137 40 137 111 157 60 z "},"t":{"ha":313,"x_min":0,"x_max":0,"o":"m 662 972 b 337 887 575 877 456 871 b 350 1123 355 965 364 1047 b 226 1220 339 1184 295 1242 b 49 967 123 1188 75 1059 b 41 932 47 958 44 946 b -256 831 -68 936 -177 913 b -214 813 -275 811 -229 798 b 34 897 -145 884 -58 901 b 155 -2 -14 640 -63 -6 b 361 451 265 -1 335 334 b 315 460 366 475 320 481 b 166 47 292 368 221 47 b 153 469 140 47 152 450 b 307 780 223 561 273 670 b 328 851 314 803 321 827 b 700 957 461 834 609 847 b 662 972 716 976 675 986 z m 276 837 b 155 545 249 736 210 635 b 180 878 160 656 167 767 b 282 858 214 871 249 864 b 276 837 280 851 278 844 z m 309 1038 b 290 894 307 990 300 942 b 184 914 254 901 219 908 b 185 923 185 917 185 920 b 220 1120 194 989 201 1056 b 287 1172 228 1148 254 1215 b 309 1038 313 1138 310 1079 z "},"u":{"ha":643,"x_min":0,"x_max":0,"o":"m 647 468 b 498 55 624 376 553 55 b 524 574 461 55 512 493 b 327 593 536 659 363 668 b 324 590 326 592 325 591 b 323 583 324 588 323 585 b 323 582 323 583 323 583 b 157 92 296 473 210 86 b 182 584 129 95 170 491 b -4 584 193 671 7 674 b 144 48 -19 468 -36 43 b 305 356 221 50 272 206 b 487 6 305 188 337 -6 b 693 459 597 14 667 342 b 647 468 698 483 652 489 z "},"v":{"ha":536,"x_min":0,"x_max":0,"o":"m 559 471 b 443 432 523 445 482 432 b 341 765 449 604 413 763 b 267 704 308 766 279 734 b 303 460 236 629 251 522 b 405 404 330 428 366 410 b 395 316 403 374 400 344 b 257 45 365 154 309 45 b 180 549 170 45 168 436 b -9 568 191 657 9 668 b 251 8 -25 475 -23 -13 b 442 402 368 17 430 212 b 581 458 493 404 545 424 b 559 471 592 469 567 476 z m 407 436 b 305 529 362 446 324 476 b 311 713 285 583 280 661 b 333 737 319 726 326 736 b 407 436 376 740 411 591 z "},"w":{"ha":860,"x_min":0,"x_max":0,"o":"m 884 471 b 768 432 848 445 807 432 b 666 765 774 604 738 763 b 592 704 633 766 604 734 b 628 460 561 629 576 522 b 730 404 655 428 691 410 b 720 316 728 374 725 344 b 582 45 690 154 634 45 b 505 549 495 45 493 436 b 316 568 516 657 334 668 b 313 544 315 561 314 553 b 157 92 280 402 205 86 b 182 584 129 95 170 491 b -4 584 193 671 7 674 b 144 48 -19 468 -36 43 b 314 397 228 50 281 236 b 576 8 327 224 386 -7 b 767 402 693 17 755 212 b 906 458 818 404 870 424 b 884 471 917 469 892 476 z m 732 436 b 630 529 687 446 649 476 b 636 713 610 583 605 661 b 658 737 644 726 651 736 b 732 436 701 740 736 591 z "},"x":{"ha":483,"x_min":0,"x_max":0,"o":"m 488 468 b 339 55 465 376 394 55 b 251 279 320 55 284 161 b 432 616 311 391 372 503 b 395 623 441 633 404 639 b 237 327 342 525 289 426 b 174 577 207 435 181 541 b -29 577 155 668 -38 673 b 130 126 -22 508 29 273 b 74 18 111 90 92 54 b 105 12 66 3 98 -1 b 152 98 120 40 136 69 b 328 6 200 39 259 0 b 534 459 438 14 508 342 b 488 468 539 483 493 489 z "},"y":{"ha":657,"x_min":0,"x_max":0,"o":"m 672 452 b 527 215 639 365 586 288 b 515 572 526 334 521 453 b 322 580 510 661 329 662 b 157 92 295 467 209 86 b 182 584 129 95 170 491 b -4 584 193 671 7 674 b 144 48 -19 468 -36 43 b 327 466 240 50 295 294 b 337 51 333 327 338 189 b 336 0 337 34 337 17 b 300 -42 324 -14 312 -28 b 64 -562 185 -177 33 -371 b 232 -684 77 -647 148 -702 b 366 -593 288 -673 331 -635 b 518 -102 480 -457 506 -272 b 527 147 524 -19 527 64 b 713 444 605 237 676 333 b 672 452 720 465 679 470 z m 326 -219 b 307 -451 320 -296 319 -375 b 257 -610 298 -505 293 -567 b 212 -644 245 -625 231 -639 b 120 -518 143 -659 119 -569 b 334 -74 121 -350 229 -200 b 326 -219 333 -122 330 -171 z "},"z":{"ha":549,"x_min":0,"x_max":0,"o":"m 563 452 b 408 203 527 361 471 280 b 277 359 374 262 331 315 b 338 443 305 381 328 408 b 290 614 357 505 342 573 b 20 529 204 682 31 657 b 56 526 19 513 51 513 b 157 613 71 564 107 621 b 212 541 188 607 207 569 b 107 416 223 470 163 440 b 95 412 103 415 99 414 b 52 360 76 406 48 383 b 52 358 52 359 52 358 b 68 325 54 345 60 334 b 89 302 72 317 79 309 b 274 52 182 242 242 153 b 179 -55 242 17 210 -19 b 4 -314 112 -134 48 -219 b -38 -596 -33 -394 -71 -508 b 303 -587 26 -763 212 -667 b 489 -131 433 -473 488 -300 b 429 161 490 -29 470 71 b 604 444 502 247 568 339 b 563 452 610 465 570 470 z m 164 418 b 165 418 164 418 165 418 b 167 417 166 418 166 418 b 164 418 166 417 165 418 z m 240 -481 b 155 -616 220 -530 199 -584 b 89 -645 137 -630 112 -645 b 10 -511 25 -647 8 -560 b 261 -30 18 -325 146 -166 b 288 1 270 -20 279 -9 b 240 -481 324 -158 300 -337 z "},"{":{"ha":507,"x_min":0,"x_max":0,"o":"m 421 1323 b 147 1095 282 1351 165 1222 b 79 592 124 931 209 726 b 105 522 55 567 79 532 b 127 310 149 506 128 344 b 143 93 125 237 124 164 b 382 -59 169 -4 271 -132 b 364 -12 409 -42 385 -18 b 273 321 224 28 264 209 b 232 574 280 398 287 512 b 275 919 300 674 292 803 b 414 1289 256 1042 243 1273 b 421 1323 437 1291 450 1317 z "},"|":{"ha":231,"x_min":0,"x_max":0,"o":"m 106 1287 b 82 602 95 1059 87 830 b 77 271 80 492 78 381 b 78 -84 75 156 60 30 b 122 -88 81 -101 118 -107 b 137 247 143 20 134 137 b 147 590 141 361 144 476 b 160 1287 154 822 157 1055 b 106 1287 161 1313 107 1313 z "},"}":{"ha":507,"x_min":0,"x_max":0,"o":"m 428 592 b 360 1095 298 726 383 931 b 86 1323 342 1222 225 1351 b 93 1289 58 1317 69 1291 b 233 919 264 1273 251 1042 b 275 574 215 803 207 674 b 234 321 220 512 227 398 b 143 -12 243 209 283 28 b 125 -59 122 -18 98 -42 b 364 93 236 -132 338 -3 b 380 299 382 160 382 229 b 402 522 379 334 357 506 b 428 592 428 532 452 567 z "}," ":{"ha":396,"x_min":0,"x_max":0,"o":""},"¡":{"ha":344,"x_min":0,"x_max":0,"o":"m 248 776 b 225 997 245 846 251 930 b 140 997 212 1029 153 1026 b 103 776 109 932 110 847 b 85 551 96 701 89 626 b 69 90 76 398 71 244 b 254 90 69 4 254 3 b 254 551 256 244 256 398 b 248 776 253 626 251 701 z m 272 1160 b 256 1182 268 1169 263 1176 b 240 1193 251 1187 246 1191 b 209 1204 230 1199 220 1203 b 185 1207 201 1205 193 1206 b 140 1198 170 1207 155 1204 b 106 1174 128 1193 114 1184 b 93 1141 97 1163 94 1155 b 96 1122 92 1135 94 1128 b 119 1094 101 1111 109 1101 b 138 1085 126 1091 132 1088 b 184 1076 152 1079 168 1076 b 218 1081 196 1075 207 1077 b 248 1094 229 1084 239 1088 b 266 1115 256 1100 262 1106 b 274 1133 270 1120 273 1126 b 275 1144 275 1137 275 1140 b 272 1160 274 1149 273 1155 z "},"¢":{"ha":711,"x_min":0,"x_max":0,"o":"m 596 626 b 544 334 582 528 567 430 b 449 86 525 249 501 157 b 364 45 416 42 388 34 b 400 1182 370 422 329 810 b 426 1085 439 1195 433 1115 b 462 1078 422 1066 456 1062 b 410 1232 483 1140 466 1212 b 420 1275 413 1246 417 1261 b 367 1285 427 1302 373 1309 b 356 1234 363 1268 360 1251 b 354 1234 355 1234 355 1234 b 216 1138 297 1222 249 1184 b 76 677 123 1008 89 834 b 131 174 63 514 62 326 b 318 5 168 90 234 20 b 321 -51 319 -14 320 -32 b 362 -51 322 -70 361 -70 b 364 2 363 -33 363 -15 b 413 11 379 3 396 6 b 563 238 503 39 538 159 b 642 626 603 364 625 495 b 596 626 645 647 599 647 z m 311 637 b 315 103 311 459 310 281 b 286 178 302 127 293 154 b 242 563 248 301 240 435 b 292 975 243 700 255 843 b 334 1097 304 1016 316 1058 b 311 637 314 945 310 791 z "},"£":{"ha":722,"x_min":0,"x_max":0,"o":"m 629 111 b 294 76 517 110 404 97 b 294 84 294 79 294 81 b 289 737 266 299 272 520 b 295 809 291 761 293 785 b 360 807 317 809 338 809 b 368 846 389 805 400 843 b 300 851 345 849 323 851 b 339 1037 308 914 320 977 b 440 1169 351 1073 383 1182 b 461 1205 463 1164 491 1192 b 172 841 270 1286 197 968 b 82 818 142 835 112 828 b 101 785 53 808 80 780 b 165 798 123 790 144 795 b 151 84 125 564 121 319 b 172 49 152 69 161 58 b 83 25 142 42 113 34 b 104 -10 53 16 81 -16 b 629 73 278 34 450 59 b 629 111 661 76 662 111 z "},"¤":{"ha":417,"x_min":0,"x_max":0,"o":"m 303 685 b 266 617 291 662 278 640 b 221 635 253 626 238 633 b 152 617 196 639 171 631 b 115 685 139 640 127 663 b 72 677 106 701 63 698 b 117 580 86 644 101 612 b 116 577 117 579 116 578 b 114 332 61 514 48 387 b 90 289 106 317 98 303 b 138 279 78 268 127 260 b 156 311 144 290 150 300 b 168 308 160 309 164 309 b 255 322 190 304 228 311 b 280 279 263 308 271 294 b 328 289 291 260 340 268 b 293 350 316 309 305 330 b 323 438 313 375 320 409 b 299 576 327 480 322 535 b 345 677 315 610 331 643 b 303 685 354 698 312 701 z m 237 353 b 236 355 237 354 236 355 b 218 386 229 362 220 377 b 217 390 217 387 217 389 b 237 354 223 378 230 366 b 237 353 237 353 237 353 z m 272 423 b 266 400 270 415 269 408 b 237 455 256 419 247 437 b 269 516 248 475 258 495 b 272 423 276 485 277 452 z "},"¥":{"ha":707,"x_min":0,"x_max":0,"o":"m 618 510 b 544 515 593 513 568 515 b 549 554 546 528 547 541 b 610 552 569 554 590 553 b 618 591 639 549 651 587 b 554 595 597 594 575 595 b 547 1157 576 781 573 973 b 404 1157 538 1224 395 1221 b 404 1153 404 1156 404 1154 b 240 666 377 1040 292 660 b 264 1158 211 669 252 1065 b 78 1158 275 1245 90 1248 b 226 622 63 1042 46 617 b 415 1066 328 625 383 895 b 415 584 430 906 427 744 b 332 562 387 578 359 571 b 352 530 304 553 330 524 b 412 542 372 535 392 539 b 410 523 411 536 411 529 b 408 501 410 516 409 509 b 332 481 383 496 357 490 b 352 449 304 472 330 443 b 404 460 369 453 387 457 b 355 220 395 379 380 297 b 244 40 337 161 307 65 b 264 7 216 29 242 1 b 534 458 454 59 504 290 b 537 473 535 463 536 468 b 610 471 561 473 585 472 b 618 510 639 468 651 506 z "},"§":{"ha":668,"x_min":0,"x_max":0,"o":"m 551 664 b 296 827 479 739 361 746 b 260 977 261 870 253 924 b 307 1126 267 1027 270 1088 b 483 1093 363 1182 446 1155 b 502 926 513 1043 517 982 b 558 916 494 898 549 891 b 453 1184 591 1014 556 1142 b 186 1082 351 1226 246 1163 b 178 780 122 995 117 868 b 126 758 157 779 137 772 b 117 515 62 683 44 591 b 373 352 189 440 307 433 b 408 202 407 309 415 255 b 361 53 402 152 398 91 b 185 86 306 -3 222 24 b 166 253 156 136 151 197 b 111 263 174 281 119 288 b 215 -6 77 165 112 37 b 483 97 317 -47 422 16 b 491 399 547 184 552 311 b 543 421 511 400 531 407 b 551 664 607 496 625 588 z m 420 471 b 416 466 419 469 418 468 b 248 708 312 528 140 578 b 252 713 250 710 251 711 b 420 471 356 651 528 601 z "},"©":{"ha":806,"x_min":0,"x_max":0,"o":"m 615 609 b 496 257 594 500 583 336 b 494 258 495 257 495 258 b 491 272 493 262 492 268 b 481 294 489 280 484 287 b 460 394 467 325 465 361 b 458 675 449 486 449 582 b 503 912 466 752 470 841 b 520 944 505 916 513 945 b 530 889 523 944 530 896 b 513 707 535 829 528 765 b 568 696 505 678 562 672 b 513 989 585 766 624 977 b 322 802 411 1001 349 884 b 308 410 283 681 284 534 b 372 262 319 356 337 305 b 438 223 392 237 409 231 b 453 218 418 229 449 218 b 484 216 463 216 473 214 b 588 320 537 223 569 273 b 656 605 625 409 640 510 b 615 609 659 623 618 625 z m 505 249 b 504 250 505 249 505 250 b 505 249 506 250 507 249 z m 709 888 b 432 1215 678 1030 603 1210 b 137 741 181 1221 121 966 b 100 705 119 734 105 723 b 360 15 31 466 64 81 b 583 70 436 -2 526 15 b 689 277 639 125 669 203 b 709 888 742 474 752 689 z m 668 391 b 482 57 651 292 606 77 b 335 112 436 49 369 81 b 248 265 291 153 266 210 b 223 512 222 345 216 429 b 225 523 226 515 226 519 b 225 524 225 523 225 523 b 257 674 230 575 242 626 b 177 747 272 720 224 747 b 185 918 173 804 175 861 b 387 1180 205 1031 264 1154 b 658 910 549 1214 627 1038 b 668 391 700 743 698 560 z "},"«":{"ha":747,"x_min":0,"x_max":0,"o":"m 560 686 b 307 551 491 608 397 595 b 307 509 287 541 284 518 b 536 345 397 476 473 417 b 576 361 549 330 592 341 b 409 511 528 422 472 470 b 667 642 507 524 605 566 b 560 686 712 696 595 726 z m 188 558 b 446 690 286 571 383 613 b 339 734 490 744 374 773 b 85 598 269 655 175 642 b 85 557 66 589 62 566 b 315 393 175 523 252 464 b 355 409 328 378 371 388 b 188 558 307 470 251 517 z "},"­":{"ha":0,"x_min":0,"x_max":0,"o":""},"®":{"ha":719,"x_min":0,"x_max":0,"o":"m 504 940 b 437 932 477 947 455 943 b 289 909 411 979 291 973 b 286 690 286 836 283 763 b 289 636 287 673 287 655 b 287 625 288 633 287 629 b 293 602 287 616 289 609 b 339 519 300 569 313 538 b 388 519 352 510 376 509 b 402 533 393 523 398 528 b 414 523 406 529 410 526 b 544 531 455 495 506 497 b 544 567 556 542 558 556 b 524 574 538 572 531 574 b 499 616 516 589 508 603 b 570 741 533 647 557 690 b 504 940 585 808 588 918 z m 453 867 b 437 796 450 842 445 819 b 439 853 437 815 438 834 b 446 870 441 859 443 865 b 454 882 448 874 451 878 b 453 867 454 877 453 871 z m 629 954 b 405 1215 604 1069 542 1212 b 167 859 212 1219 160 1033 b 88 817 132 860 97 847 b 337 260 32 613 97 312 b 612 465 489 228 575 333 b 629 954 655 622 663 794 z m 586 551 b 442 301 571 477 535 314 b 326 351 403 295 353 326 b 253 470 292 384 270 427 b 223 647 231 527 221 587 b 247 666 236 646 251 653 b 230 723 241 683 235 702 b 246 787 234 744 239 766 b 210 851 256 817 237 839 b 376 1182 199 996 231 1156 b 582 961 503 1204 559 1059 b 586 551 613 828 611 684 z "},"°":{"ha":338,"x_min":0,"x_max":0,"o":"m 268 1218 b 179 1292 264 1263 223 1296 b 163 1287 172 1292 167 1290 b 145 1287 157 1289 151 1289 b 71 1178 98 1275 61 1228 b 191 1118 83 1124 143 1105 b 268 1218 235 1130 271 1172 z m 172 1166 b 145 1197 153 1162 145 1180 b 180 1245 146 1222 164 1230 b 188 1256 184 1249 187 1252 b 172 1166 228 1247 210 1174 z "},"µ":{"ha":703,"x_min":0,"x_max":0,"o":"m 612 756 b 582 861 598 791 585 821 b 617 1098 574 942 592 1021 b 487 1123 639 1163 505 1180 b 469 787 459 1037 434 893 b 310 869 410 744 337 798 b 286 1086 284 938 291 1013 b 250 1102 285 1102 265 1107 b 70 1078 220 1163 70 1156 b 71 539 70 898 68 719 b 76 282 72 453 74 367 b 100 16 79 196 73 98 b 185 16 110 -16 174 -14 b 221 270 215 93 215 188 b 239 539 229 359 234 449 b 251 859 245 646 248 752 b 331 753 267 816 293 779 b 490 739 375 723 441 716 b 591 662 512 703 544 675 b 633 684 606 658 632 666 b 612 756 635 710 622 733 z "},"¶":{"ha":953,"x_min":0,"x_max":0,"o":"m 699 1078 b 698 754 699 970 698 862 b 578 835 661 785 621 812 b 583 1078 580 916 581 997 b 398 1078 585 1164 398 1165 b 398 901 398 1019 398 960 b 372 906 389 903 381 904 b 75 755 245 927 107 898 b 307 539 41 603 174 532 b 399 551 338 541 368 545 b 399 539 399 547 399 543 b 404 282 400 453 402 367 b 427 16 407 196 401 98 b 513 16 438 -16 502 -14 b 549 270 543 93 542 188 b 567 539 557 359 562 449 b 570 608 568 562 569 585 b 698 681 615 629 658 653 b 700 539 699 634 699 586 b 705 282 701 453 703 367 b 728 16 708 196 702 98 b 814 16 739 -16 803 -14 b 850 270 844 93 843 188 b 868 539 858 359 863 449 b 884 1078 878 718 881 898 b 699 1078 885 1164 699 1165 z m 379 590 b 181 604 315 577 239 568 b 139 768 124 640 117 709 b 398 861 182 882 295 885 b 398 595 397 772 397 683 b 379 590 392 593 385 592 z m 573 660 b 577 786 574 702 576 744 b 671 720 610 766 641 744 b 573 660 639 698 607 677 z "},"·":{"ha":296,"x_min":0,"x_max":0,"o":"m 223 494 b 203 518 219 504 212 512 b 187 527 198 521 192 524 b 148 534 174 532 161 534 b 117 529 137 535 127 533 b 92 518 108 527 100 524 b 76 501 85 514 80 508 b 69 480 71 494 69 487 b 72 465 70 475 71 470 b 92 441 77 455 83 447 b 108 432 98 438 103 435 b 148 425 121 427 134 425 b 178 430 158 424 168 426 b 203 441 187 432 195 435 b 219 458 210 445 215 451 b 226 480 224 465 226 472 b 223 494 225 484 224 489 z "},"»":{"ha":747,"x_min":0,"x_max":0,"o":"m 440 551 b 187 686 350 595 256 608 b 79 642 151 726 35 696 b 337 511 142 566 239 524 b 171 361 274 470 219 422 b 211 345 154 341 198 330 b 440 509 273 417 350 476 b 440 551 463 518 460 541 z m 661 598 b 408 734 571 642 477 655 b 301 690 373 773 256 744 b 559 558 363 613 461 571 b 392 409 496 517 440 470 b 432 393 376 388 419 378 b 661 557 495 464 571 523 b 661 598 684 566 681 589 z "},"¿":{"ha":558,"x_min":0,"x_max":0,"o":"m 238 1049 b 328 1112 275 1049 328 1069 b 238 1176 329 1156 273 1176 b 147 1112 201 1176 148 1156 b 238 1049 146 1068 203 1049 z m 470 411 b 425 407 465 429 422 426 b 351 88 443 297 451 163 b 186 142 289 41 206 67 b 201 319 171 200 180 264 b 339 626 241 425 309 515 b 343 966 369 740 366 851 b 170 933 327 1043 151 1023 b 122 480 203 778 177 626 b 135 89 73 348 28 203 b 403 71 209 12 318 3 b 470 411 506 154 501 294 z "},"À":{"ha":739,"x_min":0,"x_max":0,"o":"m 507 1384 b 501 1415 533 1387 523 1415 b 373 1510 442 1416 392 1454 b 318 1499 364 1533 309 1526 b 507 1384 345 1420 426 1375 z m 602 262 b 538 596 577 373 555 484 b 493 1266 505 818 490 1042 b 348 1266 493 1334 349 1334 b 350 1108 348 1213 348 1161 b 225 505 322 905 282 703 b -48 580 146 553 55 581 b -48 539 -84 579 -84 539 b 212 462 54 541 139 511 b -27 -108 152 264 74 72 b 12 -120 -37 -125 3 -134 b 252 432 116 52 192 240 b 527 24 375 331 460 173 b 558 -46 537 0 547 -23 b 560 -50 559 -47 560 -49 b 562 -53 561 -51 561 -52 b 569 -68 565 -58 567 -63 b 669 -58 586 -98 674 -107 b 602 262 659 50 625 156 z m 266 478 b 279 522 270 493 275 507 b 363 868 312 636 340 751 b 397 585 371 773 382 679 b 456 273 412 480 432 376 b 266 478 403 353 340 424 z "},"Á":{"ha":739,"x_min":0,"x_max":0,"o":"m 337 1384 b 526 1499 419 1375 499 1420 b 472 1510 535 1526 480 1533 b 343 1415 452 1454 403 1416 b 337 1384 321 1415 311 1387 z m 602 262 b 538 596 577 373 555 484 b 493 1266 505 818 490 1042 b 348 1266 493 1334 349 1334 b 350 1108 348 1213 348 1161 b 225 505 322 905 282 703 b -48 580 146 553 55 581 b -48 539 -84 579 -84 539 b 212 462 54 541 139 511 b -27 -108 152 264 74 72 b 12 -120 -37 -125 3 -134 b 252 432 116 52 192 240 b 527 24 375 331 460 173 b 558 -46 537 0 547 -23 b 560 -50 559 -47 560 -49 b 562 -53 561 -51 561 -52 b 569 -68 565 -58 567 -63 b 669 -58 586 -98 674 -107 b 602 262 659 50 625 156 z m 266 478 b 279 522 270 493 275 507 b 363 868 312 636 340 751 b 397 585 371 773 382 679 b 456 273 412 480 432 376 b 266 478 403 353 340 424 z "},"Â":{"ha":739,"x_min":0,"x_max":0,"o":"m 340 1388 b 509 1379 379 1472 480 1469 b 567 1390 517 1353 576 1360 b 288 1398 530 1520 330 1530 b 340 1388 280 1371 330 1367 z m 602 262 b 538 596 577 373 555 484 b 493 1266 505 818 490 1042 b 348 1266 493 1334 349 1334 b 350 1108 348 1213 348 1161 b 225 505 322 905 282 703 b -48 580 146 553 55 581 b -48 539 -84 579 -84 539 b 212 462 54 541 139 511 b -27 -108 152 264 74 72 b 12 -120 -37 -125 3 -134 b 252 432 116 52 192 240 b 527 24 375 331 460 173 b 558 -46 537 0 547 -23 b 560 -50 559 -47 560 -49 b 562 -53 561 -51 561 -52 b 569 -68 565 -58 567 -63 b 669 -58 586 -98 674 -107 b 602 262 659 50 625 156 z m 266 478 b 279 522 270 493 275 507 b 363 868 312 636 340 751 b 397 585 371 773 382 679 b 456 273 413 480 432 376 b 266 478 403 353 340 424 z "},"Ã":{"ha":739,"x_min":0,"x_max":0,"o":"m 256 1384 b 519 1400 298 1486 438 1387 b 612 1488 567 1408 604 1439 b 557 1488 616 1513 561 1514 b 300 1471 541 1386 367 1482 b 209 1389 256 1464 214 1436 b 256 1384 207 1367 249 1368 z m 602 262 b 538 596 577 373 555 484 b 493 1266 505 818 490 1042 b 348 1266 493 1334 349 1334 b 350 1108 348 1213 348 1161 b 225 505 322 905 282 703 b -48 580 146 553 55 581 b -48 539 -84 579 -84 539 b 212 462 54 541 139 511 b -27 -108 152 264 74 72 b 12 -120 -37 -125 3 -134 b 252 432 116 52 192 240 b 527 24 375 331 460 173 b 558 -46 537 0 547 -23 b 560 -50 559 -47 560 -49 b 562 -53 561 -51 561 -52 b 569 -68 565 -58 567 -63 b 669 -58 586 -98 674 -107 b 602 262 659 50 625 156 z m 266 478 b 279 522 270 493 275 507 b 363 868 312 636 340 751 b 397 585 371 773 382 679 b 456 273 413 480 432 376 b 266 478 403 353 340 424 z "},"Ä":{"ha":739,"x_min":0,"x_max":0,"o":"m 245 1440 b 258 1429 249 1437 253 1433 b 274 1420 263 1426 269 1423 b 305 1413 284 1415 294 1413 b 327 1413 312 1412 320 1412 b 348 1417 334 1413 341 1414 b 366 1424 354 1418 360 1421 b 380 1435 371 1427 376 1430 b 391 1447 385 1438 389 1442 b 397 1462 395 1451 397 1456 b 397 1477 399 1467 399 1472 b 390 1495 396 1484 394 1490 b 380 1505 387 1499 384 1503 b 357 1520 374 1512 366 1517 b 338 1526 351 1522 345 1524 b 295 1526 324 1528 310 1528 b 258 1510 284 1524 267 1517 b 245 1499 253 1506 249 1502 b 237 1485 242 1494 239 1489 b 234 1469 236 1480 235 1475 b 237 1454 235 1464 236 1459 b 245 1440 239 1450 242 1445 z m 435 1440 b 447 1429 439 1437 443 1433 b 464 1420 453 1426 459 1423 b 495 1413 474 1415 484 1413 b 517 1413 502 1412 509 1412 b 537 1417 524 1413 531 1414 b 555 1424 544 1418 550 1421 b 570 1435 561 1427 566 1430 b 581 1447 575 1438 578 1442 b 586 1462 584 1451 586 1456 b 586 1477 588 1467 588 1472 b 580 1495 586 1484 584 1490 b 570 1505 577 1499 574 1503 b 547 1520 563 1512 556 1517 b 528 1526 541 1522 534 1524 b 485 1526 514 1528 499 1528 b 447 1510 473 1524 457 1517 b 435 1499 443 1506 439 1502 b 426 1485 432 1494 429 1489 b 423 1469 425 1480 424 1475 b 426 1454 424 1464 425 1459 b 435 1440 429 1450 432 1445 z m 602 262 b 538 596 577 373 555 484 b 493 1266 505 818 490 1042 b 348 1266 493 1334 349 1334 b 350 1108 348 1213 348 1161 b 225 505 322 905 282 703 b -48 580 146 553 55 581 b -48 539 -84 579 -84 539 b 212 462 54 541 139 511 b -27 -108 152 264 74 72 b 12 -120 -37 -125 3 -134 b 252 432 116 52 192 240 b 527 24 375 331 460 173 b 558 -46 537 0 547 -23 b 560 -50 559 -47 560 -49 b 562 -53 561 -51 561 -52 b 569 -68 565 -58 567 -63 b 669 -58 586 -98 674 -107 b 602 262 659 50 625 156 z m 266 478 b 279 522 270 493 275 507 b 363 868 312 636 340 751 b 397 585 371 773 382 679 b 456 273 412 480 432 376 b 266 478 403 353 340 424 z "},"Å":{"ha":739,"x_min":0,"x_max":0,"o":"m 431 1375 b 480 1462 470 1386 490 1423 b 383 1547 468 1506 423 1532 b 373 1549 380 1548 377 1549 b 338 1545 363 1555 343 1553 b 325 1418 312 1511 305 1456 b 431 1375 346 1381 390 1364 z m 372 1498 b 409 1472 386 1492 400 1484 b 408 1414 420 1460 433 1420 b 369 1466 384 1408 371 1449 b 372 1498 368 1477 370 1488 z m 602 262 b 538 596 577 373 555 484 b 493 1266 505 818 490 1042 b 348 1266 493 1334 349 1334 b 350 1108 348 1213 348 1161 b 225 505 322 905 282 703 b -48 580 146 553 55 581 b -48 539 -84 579 -84 539 b 212 462 54 541 139 511 b -27 -108 152 264 74 72 b 12 -120 -37 -125 3 -134 b 252 432 116 52 192 240 b 527 24 375 331 460 173 b 558 -46 537 0 547 -23 b 560 -50 559 -47 560 -49 b 562 -53 561 -51 561 -52 b 569 -68 565 -58 567 -63 b 669 -58 586 -98 674 -107 b 602 262 659 50 625 156 z m 266 478 b 279 522 270 493 275 507 b 363 868 312 636 340 751 b 397 585 371 773 382 679 b 456 273 413 480 432 376 b 266 478 403 353 340 424 z "},"Æ":{"ha":1196,"x_min":0,"x_max":0,"o":"m 1058 101 b 826 -55 1021 14 934 -95 b 763 26 800 -46 772 -11 b 923 218 735 133 827 203 b 983 292 958 224 996 254 b 973 309 981 298 977 304 b 895 343 957 332 920 341 b 743 441 832 347 778 380 b 696 683 701 514 695 601 b 867 1184 699 857 757 1047 b 951 1253 891 1214 918 1233 b 1025 1130 1034 1303 1035 1188 b 1062 1127 1023 1115 1058 1113 b 1025 1290 1076 1181 1083 1259 b 892 1298 989 1309 930 1309 b 662 1101 793 1268 716 1186 b 525 695 590 990 535 841 b 493 1266 501 884 491 1075 b 348 1266 493 1334 349 1334 b 350 1108 348 1213 348 1161 b 225 505 322 905 282 703 b -48 580 146 553 55 581 b -48 539 -84 579 -84 539 b 212 462 54 541 139 511 b -27 -108 152 264 74 72 b 12 -120 -37 -125 3 -134 b 252 432 116 52 192 240 b 527 24 375 331 460 173 b 558 -46 537 0 547 -23 b 560 -50 559 -47 560 -49 b 562 -53 561 -51 561 -52 b 569 -68 565 -58 567 -63 b 669 -65 585 -96 665 -106 b 853 -102 721 -104 787 -110 b 1101 93 978 -88 1060 -30 b 1058 101 1108 115 1066 119 z m 266 478 b 279 522 270 493 275 507 b 363 868 312 636 340 751 b 397 585 371 773 382 679 b 456 273 413 480 432 376 b 266 478 403 353 340 424 z m 626 181 b 623 175 625 179 624 177 b 602 262 615 204 608 233 b 566 434 589 320 577 377 b 572 422 568 430 570 426 b 714 272 605 354 654 305 b 626 181 679 249 648 219 z "},"Ç":{"ha":676,"x_min":0,"x_max":0,"o":"m 548 611 b 488 274 531 499 514 385 b 373 -14 465 176 437 67 b 179 103 274 -139 206 16 b 129 550 135 246 126 401 b 191 1021 131 706 146 871 b 263 1198 209 1082 228 1144 b 303 1242 274 1215 287 1232 b 353 1134 372 1282 362 1175 b 389 1127 348 1115 383 1111 b 373 1272 405 1175 414 1234 b 271 1300 344 1298 308 1308 b 120 1194 209 1288 155 1245 b -37 674 15 1046 -22 851 b 23 99 -52 488 -53 273 b 244 -97 65 2 143 -85 b 249 -181 231 -124 229 -156 b 291 -205 259 -193 275 -202 b 321 -205 298 -206 316 -202 b 312 -227 336 -213 325 -222 b 331 -276 274 -240 303 -276 b 388 -180 381 -275 425 -225 b 323 -154 370 -158 348 -158 b 311 -155 320 -154 314 -157 b 304 -131 305 -150 304 -138 b 310 -94 304 -118 307 -106 b 335 -88 318 -93 327 -90 b 507 178 439 -56 479 87 b 593 611 550 319 574 466 b 548 611 596 632 551 633 z "},"È":{"ha":629,"x_min":0,"x_max":0,"o":"m 447 1384 b 441 1415 473 1387 463 1415 b 312 1510 382 1416 332 1454 b 258 1499 304 1533 249 1526 b 447 1384 285 1420 365 1375 z m 492 101 b 259 -55 455 14 368 -95 b 196 26 234 -46 206 -11 b 357 218 169 133 261 203 b 417 292 391 224 430 254 b 407 309 414 298 411 304 b 328 343 391 332 354 341 b 176 441 266 347 212 380 b 130 683 135 514 128 601 b 301 1184 132 857 191 1047 b 385 1253 325 1214 352 1233 b 459 1130 467 1303 469 1188 b 495 1127 456 1115 492 1113 b 458 1290 509 1181 517 1259 b 326 1298 422 1309 364 1309 b 96 1101 227 1268 150 1186 b 5 422 -24 916 -97 630 b 148 272 39 354 88 305 b 60 181 112 249 82 219 b 69 -33 21 115 19 28 b 287 -102 124 -101 205 -111 b 534 93 412 -88 494 -30 b 492 101 542 115 499 119 z "},"É":{"ha":629,"x_min":0,"x_max":0,"o":"m 316 1384 b 505 1499 398 1375 478 1420 b 451 1510 514 1526 459 1533 b 322 1415 431 1454 382 1416 b 316 1384 300 1415 290 1387 z m 492 101 b 260 -55 455 14 368 -95 b 196 26 234 -46 206 -11 b 357 218 169 133 261 203 b 417 292 391 224 430 254 b 407 309 414 298 411 304 b 328 343 391 332 354 341 b 176 441 266 347 212 380 b 130 683 135 514 128 601 b 301 1184 132 857 191 1047 b 385 1253 325 1214 352 1233 b 459 1130 467 1303 469 1188 b 495 1127 456 1115 492 1113 b 458 1290 509 1181 517 1259 b 326 1298 422 1309 364 1309 b 96 1101 227 1268 150 1186 b 5 422 -24 916 -97 630 b 148 272 39 354 88 305 b 60 181 112 249 82 219 b 69 -33 21 115 19 28 b 287 -102 124 -101 205 -111 b 534 93 412 -88 494 -30 b 492 101 542 115 499 119 z "},"Ê":{"ha":629,"x_min":0,"x_max":0,"o":"m 285 1388 b 454 1379 324 1472 425 1469 b 512 1390 462 1353 520 1360 b 233 1398 474 1520 275 1530 b 285 1388 225 1371 275 1367 z m 492 101 b 260 -55 455 14 368 -95 b 196 26 234 -46 206 -11 b 357 218 169 133 261 203 b 417 292 391 224 430 254 b 407 309 414 298 411 304 b 328 343 391 332 354 341 b 176 441 266 347 212 380 b 130 683 135 514 128 601 b 301 1184 132 857 191 1047 b 385 1253 325 1214 352 1233 b 459 1130 467 1303 469 1188 b 495 1127 456 1115 492 1113 b 458 1290 509 1181 517 1259 b 326 1298 422 1309 364 1309 b 96 1101 227 1268 150 1186 b 5 422 -24 916 -97 630 b 148 272 39 354 88 305 b 60 181 112 249 82 219 b 69 -33 21 115 19 28 b 287 -102 124 -101 205 -111 b 534 93 412 -88 494 -30 b 492 101 542 115 499 119 z "},"Ë":{"ha":629,"x_min":0,"x_max":0,"o":"m 187 1392 b 200 1381 191 1388 195 1384 b 216 1372 205 1378 211 1375 b 247 1365 226 1367 236 1365 b 269 1365 254 1363 261 1363 b 289 1369 276 1365 283 1366 b 308 1376 296 1370 302 1372 b 322 1386 313 1378 318 1382 b 333 1399 327 1390 331 1394 b 339 1414 337 1403 338 1408 b 339 1429 341 1419 341 1424 b 332 1447 338 1436 336 1441 b 322 1457 329 1451 326 1454 b 299 1472 316 1464 308 1469 b 280 1477 293 1474 286 1476 b 237 1477 266 1480 252 1480 b 200 1462 226 1476 209 1469 b 187 1450 195 1458 191 1454 b 178 1437 184 1446 181 1441 b 175 1421 177 1431 176 1426 b 178 1406 176 1416 177 1411 b 187 1392 181 1401 184 1397 z m 376 1392 b 389 1381 381 1388 385 1384 b 406 1372 395 1378 400 1375 b 437 1365 416 1367 426 1365 b 458 1365 444 1363 451 1363 b 479 1369 466 1365 473 1366 b 497 1376 486 1370 492 1372 b 512 1386 503 1378 508 1382 b 523 1399 517 1390 520 1394 b 528 1414 526 1403 528 1408 b 528 1429 530 1419 530 1424 b 521 1447 528 1436 525 1441 b 512 1457 519 1451 515 1454 b 489 1472 505 1464 498 1469 b 470 1477 483 1474 476 1476 b 427 1477 456 1480 441 1480 b 389 1462 415 1476 399 1469 b 376 1450 385 1458 381 1454 b 368 1437 374 1446 371 1441 b 365 1421 367 1431 366 1426 b 368 1406 366 1416 367 1411 b 376 1392 371 1401 374 1397 z m 492 101 b 259 -55 455 14 368 -95 b 196 26 234 -46 206 -11 b 357 218 169 133 261 203 b 417 292 391 224 430 254 b 407 309 414 298 411 304 b 328 343 391 332 354 341 b 176 441 266 347 212 380 b 130 683 135 514 128 601 b 300 1184 132 857 191 1047 b 385 1253 325 1214 352 1233 b 459 1130 467 1303 469 1188 b 495 1127 456 1115 492 1113 b 458 1290 509 1181 517 1259 b 326 1298 422 1309 364 1309 b 96 1101 227 1268 150 1186 b 5 422 -24 916 -97 630 b 148 272 39 354 88 305 b 60 181 112 249 82 219 b 69 -33 21 115 19 28 b 287 -102 124 -101 205 -111 b 534 93 412 -88 494 -30 b 492 101 542 115 499 119 z "},"Ì":{"ha":379,"x_min":0,"x_max":0,"o":"m 292 1363 b 286 1394 318 1366 309 1394 b 158 1489 227 1395 177 1434 b 104 1479 150 1513 95 1506 b 292 1363 130 1399 211 1354 z m 373 -50 b 224 -51 324 -47 274 -47 b 235 267 242 54 235 161 b 236 603 235 379 235 491 b 273 1261 239 823 252 1042 b 270 1282 274 1269 273 1276 b 353 1276 297 1281 325 1279 b 365 1306 377 1273 394 1303 b 24 1302 252 1320 135 1322 b 36 1270 -8 1296 11 1266 b 121 1279 65 1273 93 1276 b 116 1261 118 1273 117 1267 b 81 591 94 1039 81 815 b 90 267 80 483 83 375 b 138 -59 97 157 102 45 b 39 -79 104 -64 71 -70 b 52 -111 9 -87 26 -116 b 373 -81 159 -89 262 -76 b 373 -50 401 -83 400 -51 z "},"Í":{"ha":379,"x_min":0,"x_max":0,"o":"m 114 1363 b 303 1479 196 1354 277 1399 b 249 1489 312 1506 257 1513 b 120 1394 230 1434 180 1395 b 114 1363 99 1394 88 1366 z m 373 -50 b 224 -51 324 -47 274 -47 b 235 267 242 54 235 161 b 236 603 235 379 235 491 b 273 1261 239 823 252 1042 b 270 1282 274 1269 273 1276 b 353 1276 297 1281 325 1279 b 365 1306 377 1273 394 1303 b 24 1302 252 1320 135 1322 b 36 1270 -8 1296 11 1266 b 121 1279 65 1273 93 1276 b 116 1261 118 1273 117 1267 b 81 591 94 1039 81 815 b 90 267 80 483 83 375 b 138 -59 97 157 102 45 b 39 -79 104 -64 71 -70 b 52 -111 9 -87 26 -116 b 373 -81 159 -89 262 -76 b 373 -50 401 -83 400 -51 z "},"Î":{"ha":379,"x_min":0,"x_max":0,"o":"m 117 1367 b 286 1358 156 1451 257 1448 b 344 1369 295 1333 353 1340 b 66 1377 307 1499 108 1509 b 117 1367 57 1351 108 1346 z m 373 -50 b 224 -51 324 -47 274 -47 b 235 267 242 54 235 161 b 236 603 235 379 235 491 b 273 1261 239 823 252 1042 b 270 1282 274 1269 273 1276 b 353 1276 297 1281 325 1279 b 365 1306 377 1273 394 1303 b 24 1302 252 1320 135 1322 b 36 1270 -8 1296 11 1266 b 121 1279 65 1273 93 1276 b 116 1261 118 1273 117 1267 b 81 591 94 1039 81 815 b 90 267 80 483 83 375 b 138 -59 97 157 102 45 b 39 -79 104 -64 71 -70 b 52 -111 9 -87 26 -116 b 373 -81 159 -89 262 -76 b 373 -50 401 -83 400 -51 z "},"Ï":{"ha":381,"x_min":0,"x_max":0,"o":"m 51 1399 b 64 1387 55 1395 59 1391 b 80 1378 69 1384 75 1381 b 111 1372 90 1374 100 1372 b 133 1372 118 1370 126 1370 b 154 1376 140 1372 147 1373 b 172 1383 160 1377 166 1379 b 187 1393 178 1385 182 1389 b 197 1406 191 1396 195 1401 b 203 1420 201 1410 203 1415 b 203 1436 205 1426 205 1431 b 196 1454 202 1442 200 1448 b 186 1464 193 1458 190 1461 b 163 1479 180 1471 172 1476 b 144 1484 157 1481 151 1482 b 102 1484 130 1487 116 1487 b 64 1469 90 1482 73 1476 b 51 1457 59 1465 55 1461 b 43 1443 48 1453 45 1448 b 40 1428 42 1438 41 1433 b 43 1413 41 1423 42 1418 b 51 1399 45 1408 48 1404 z m 241 1399 b 253 1387 245 1395 249 1391 b 270 1378 259 1384 265 1381 b 301 1372 280 1374 290 1372 b 323 1372 308 1370 315 1370 b 343 1376 330 1372 337 1373 b 362 1383 350 1377 356 1379 b 376 1393 367 1385 372 1389 b 387 1406 381 1396 385 1401 b 392 1420 390 1410 392 1415 b 392 1436 394 1426 394 1431 b 386 1454 392 1442 390 1448 b 376 1464 383 1458 380 1461 b 353 1479 369 1471 362 1476 b 334 1484 347 1481 340 1482 b 291 1484 320 1487 305 1487 b 253 1469 280 1482 263 1476 b 241 1457 249 1465 245 1461 b 232 1443 238 1453 235 1448 b 229 1428 231 1438 230 1433 b 232 1413 230 1423 231 1418 b 241 1399 235 1408 238 1404 z m 373 -50 b 224 -51 324 -47 274 -47 b 235 267 242 54 235 161 b 236 603 235 379 235 491 b 273 1261 239 823 252 1042 b 270 1282 274 1269 273 1276 b 353 1276 297 1281 325 1279 b 365 1306 377 1273 394 1303 b 24 1302 252 1320 135 1322 b 36 1270 -8 1296 11 1266 b 121 1279 65 1273 93 1276 b 116 1261 118 1273 117 1267 b 81 591 94 1039 81 815 b 90 267 80 483 83 375 b 138 -59 97 157 102 45 b 39 -79 104 -64 71 -70 b 52 -111 9 -87 26 -116 b 373 -81 159 -89 262 -76 b 373 -50 401 -83 400 -51 z "},"Ñ":{"ha":756,"x_min":0,"x_max":0,"o":"m 617 1520 b 225 1498 535 1350 354 1480 b 40 1362 148 1510 3 1467 b 91 1366 47 1340 87 1346 b 452 1384 124 1543 343 1394 b 684 1507 541 1376 658 1410 b 617 1520 694 1542 630 1547 z m 628 576 b 629 938 630 697 633 818 b 587 1204 626 1025 623 1124 b 495 1311 568 1247 545 1297 b 384 1247 446 1324 408 1285 b 289 1016 339 1177 313 1095 b 203 676 254 904 227 790 b 144 368 181 574 162 471 b 146 603 144 447 145 525 b 183 1261 149 823 161 1042 b 25 1261 190 1333 33 1336 b -10 591 4 1039 -9 815 b -1 267 -10 483 -8 375 b 48 -63 7 156 12 43 b 132 -55 61 -98 126 -89 b 143 37 138 -24 141 6 b 225 529 166 202 194 366 b 385 1142 264 735 305 947 b 475 1279 396 1169 435 1281 b 497 1176 506 1277 498 1195 b 477 584 491 979 486 781 b 492 -145 466 344 447 93 b 652 -130 507 -228 670 -218 b 628 576 606 100 624 344 z "},"Ò":{"ha":783,"x_min":0,"x_max":0,"o":"m 403 1343 b 397 1374 429 1346 420 1373 b 269 1468 338 1374 288 1413 b 215 1458 261 1492 206 1485 b 403 1343 241 1379 322 1333 z m 602 1007 b 445 1279 575 1104 532 1219 b 174 1237 357 1340 248 1302 b -36 779 46 1125 -18 944 b 108 403 -51 640 -26 473 b 152 25 90 276 92 140 b 460 -78 208 -81 349 -145 b 613 158 542 -28 587 70 b 602 1007 691 425 677 741 z m 580 289 b 479 12 564 195 540 88 b 333 22 432 -45 364 -45 b 312 424 278 143 291 297 b 372 639 324 497 344 570 b 413 722 384 667 397 696 b 441 760 421 735 431 748 b 461 782 446 766 467 787 b 317 882 556 862 387 941 b 121 486 202 784 149 630 b 114 444 119 472 116 458 b 12 743 25 509 7 638 b 150 1143 20 882 69 1030 b 398 1260 201 1213 304 1316 b 533 1034 473 1215 508 1112 b 580 289 608 800 619 531 z "},"Ó":{"ha":783,"x_min":0,"x_max":0,"o":"m 236 1343 b 425 1458 317 1333 398 1379 b 370 1468 434 1485 379 1492 b 242 1374 351 1413 301 1374 b 236 1343 220 1373 210 1346 z m 602 1007 b 445 1279 575 1104 532 1219 b 174 1237 357 1340 248 1302 b -36 779 46 1125 -18 944 b 108 403 -51 640 -26 473 b 152 25 90 276 92 140 b 460 -78 208 -81 349 -145 b 613 158 542 -28 587 70 b 602 1007 691 425 677 741 z m 580 289 b 479 12 564 195 540 88 b 333 22 432 -45 364 -45 b 312 424 278 143 291 297 b 372 639 324 497 344 570 b 413 722 384 667 397 696 b 441 760 421 735 431 748 b 461 782 446 766 467 787 b 317 882 556 862 387 941 b 121 486 202 784 149 630 b 114 444 119 472 116 458 b 12 743 25 509 7 638 b 150 1143 20 882 69 1030 b 398 1260 201 1213 304 1316 b 533 1034 473 1215 508 1112 b 580 289 608 800 619 531 z "},"Ô":{"ha":783,"x_min":0,"x_max":0,"o":"m 234 1347 b 403 1338 273 1431 374 1427 b 461 1349 412 1312 470 1319 b 183 1356 424 1478 225 1488 b 234 1347 174 1330 225 1325 z m 602 1007 b 445 1279 575 1104 532 1219 b 174 1237 357 1340 248 1302 b -36 779 46 1125 -18 944 b 108 403 -51 640 -26 473 b 152 25 90 276 92 140 b 460 -78 208 -81 349 -145 b 613 158 542 -28 587 70 b 602 1007 691 425 677 741 z m 580 289 b 479 12 564 195 540 88 b 333 22 432 -45 364 -45 b 312 424 278 143 291 297 b 372 639 324 497 344 570 b 413 722 384 667 397 696 b 441 760 421 735 431 748 b 461 782 446 766 467 787 b 317 882 556 862 388 941 b 121 486 202 784 150 630 b 114 444 119 472 116 458 b 12 743 25 509 7 638 b 150 1143 20 882 69 1030 b 398 1260 201 1213 304 1316 b 533 1034 473 1215 508 1112 b 580 289 608 800 619 531 z "},"Õ":{"ha":783,"x_min":0,"x_max":0,"o":"m 206 1343 b 469 1359 248 1445 388 1346 b 562 1447 517 1367 555 1398 b 507 1447 566 1471 512 1472 b 251 1430 491 1345 317 1440 b 159 1347 206 1422 165 1394 b 206 1343 157 1326 199 1326 z m 602 1007 b 445 1279 575 1104 532 1219 b 174 1237 357 1340 248 1302 b -36 779 46 1125 -18 944 b 108 403 -51 640 -26 473 b 152 25 90 276 92 140 b 460 -78 208 -81 349 -145 b 613 158 542 -28 587 70 b 602 1007 691 425 677 741 z m 580 289 b 479 12 564 195 540 88 b 333 22 432 -45 364 -45 b 312 424 278 143 291 297 b 372 639 324 497 344 570 b 413 722 384 667 397 696 b 441 760 421 735 431 748 b 461 782 446 766 467 787 b 317 882 556 862 388 941 b 121 486 202 784 150 630 b 114 444 119 472 116 458 b 12 743 25 509 7 638 b 150 1143 20 882 69 1030 b 398 1260 201 1213 304 1316 b 533 1034 473 1215 508 1112 b 580 289 608 800 619 531 z "},"Ö":{"ha":783,"x_min":0,"x_max":0,"o":"m 188 1399 b 201 1387 192 1395 197 1391 b 218 1378 207 1384 212 1381 b 248 1372 227 1374 238 1372 b 270 1372 256 1370 263 1370 b 291 1376 277 1372 284 1373 b 309 1383 297 1377 303 1379 b 324 1393 315 1385 320 1389 b 334 1406 329 1396 332 1401 b 340 1420 338 1410 340 1415 b 340 1436 342 1426 342 1431 b 333 1454 339 1442 337 1448 b 323 1464 330 1458 327 1461 b 301 1479 317 1471 309 1476 b 281 1484 294 1481 288 1482 b 239 1484 267 1487 253 1487 b 201 1469 227 1482 211 1476 b 188 1457 197 1465 192 1461 b 180 1443 185 1453 183 1448 b 177 1428 179 1438 178 1433 b 180 1413 178 1423 179 1418 b 188 1399 183 1408 185 1404 z m 378 1399 b 391 1387 382 1395 386 1391 b 407 1378 396 1384 402 1381 b 438 1372 417 1374 427 1372 b 460 1372 445 1370 453 1370 b 481 1376 467 1372 474 1373 b 499 1383 487 1377 493 1379 b 513 1393 504 1385 509 1389 b 524 1406 518 1396 522 1401 b 530 1420 528 1410 530 1415 b 530 1436 532 1426 532 1431 b 523 1454 529 1442 527 1448 b 513 1464 520 1458 517 1461 b 490 1479 507 1471 499 1476 b 471 1484 484 1481 478 1482 b 428 1484 457 1487 443 1487 b 391 1469 417 1482 400 1476 b 378 1457 386 1465 382 1461 b 370 1443 375 1453 372 1448 b 367 1428 369 1438 368 1433 b 370 1413 368 1423 369 1418 b 378 1399 372 1408 375 1404 z m 602 1007 b 445 1279 575 1104 532 1219 b 174 1237 357 1340 248 1302 b -36 779 46 1125 -18 944 b 108 403 -51 640 -26 473 b 152 25 90 276 92 140 b 460 -78 208 -81 349 -145 b 613 158 542 -28 587 70 b 602 1007 691 425 677 741 z m 580 289 b 479 12 564 195 540 88 b 333 22 432 -45 364 -45 b 312 424 278 143 291 297 b 372 639 324 497 344 570 b 413 722 384 667 397 696 b 441 760 421 735 431 748 b 461 782 446 766 467 787 b 317 882 556 862 388 941 b 121 486 202 784 150 630 b 114 444 119 472 116 458 b 12 743 25 509 7 638 b 150 1143 20 882 69 1030 b 398 1260 201 1213 304 1316 b 533 1034 473 1215 508 1112 b 580 289 608 800 619 531 z "},"×":{"ha":313,"x_min":0,"x_max":0,"o":"m 202 591 b 156 510 185 565 170 538 b 110 591 141 538 127 565 b 70 579 102 605 63 599 b 128 457 86 538 106 497 b 79 366 112 426 96 396 b 127 357 67 345 116 337 b 156 407 137 373 146 390 b 185 357 166 390 175 373 b 233 366 196 337 245 345 b 184 457 216 396 200 426 b 242 579 206 497 226 538 b 202 591 249 599 210 605 z "},"Ø":{"ha":783,"x_min":0,"x_max":0,"o":"m 602 1007 b 593 1037 599 1017 596 1027 b 616 1120 601 1065 609 1093 b 664 1303 633 1180 657 1241 b 616 1308 667 1326 624 1323 b 561 1126 589 1251 577 1186 b 445 1279 534 1186 498 1243 b 174 1237 357 1340 248 1302 b -36 779 46 1125 -18 944 b 108 403 -51 640 -26 473 b 152 25 90 276 92 140 b 287 -92 181 -28 230 -71 b 277 -204 280 -129 276 -167 b 319 -208 277 -223 313 -224 b 344 -105 331 -175 338 -140 b 460 -78 383 -108 423 -100 b 613 158 542 -28 587 70 b 602 1007 691 425 677 741 z m 121 486 b 114 444 119 472 116 458 b 12 743 25 509 7 638 b 150 1143 20 882 69 1030 b 398 1260 201 1213 304 1316 b 533 1034 473 1215 508 1112 b 534 1028 533 1032 534 1030 b 509 930 526 996 517 963 b 487 845 501 902 494 874 b 317 882 470 895 368 925 b 121 486 202 784 149 630 z m 337 177 b 316 67 330 140 323 104 b 312 424 281 180 293 312 b 372 639 324 497 344 570 b 413 722 384 667 397 696 b 441 760 421 735 431 748 b 461 782 446 766 467 787 b 474 795 466 786 470 791 b 415 549 454 713 434 631 b 337 177 387 425 361 301 z m 580 289 b 479 12 564 195 540 88 b 360 -13 443 -32 394 -42 b 395 177 371 50 383 114 b 476 561 420 305 447 433 b 563 922 503 682 532 802 b 580 289 610 716 613 493 z "},"Ù":{"ha":769,"x_min":0,"x_max":0,"o":"m 413 1343 b 407 1374 439 1346 430 1373 b 279 1468 348 1374 298 1413 b 225 1458 271 1492 216 1485 b 413 1343 251 1379 332 1333 z m 507 1261 b 506 1244 507 1255 506 1250 b 419 729 483 1072 453 900 b 273 198 383 551 345 367 b 186 66 256 160 229 84 b 171 78 175 61 175 59 b 168 141 166 100 167 118 b 193 628 171 303 184 465 b 163 1184 203 807 224 1012 b 6 1154 138 1253 -23 1231 b 43 614 69 989 47 787 b 41 311 40 513 35 412 b 78 101 45 243 44 162 b 273 96 128 9 216 11 b 444 603 370 241 407 436 b 474 745 455 650 465 698 b 472 591 473 694 472 643 b 481 267 472 483 474 375 b 530 -63 489 156 494 43 b 614 -55 543 -98 608 -89 b 626 267 634 51 626 160 b 628 603 626 379 626 491 b 665 1261 631 823 643 1042 b 507 1261 672 1333 514 1336 z "},"Ú":{"ha":769,"x_min":0,"x_max":0,"o":"m 246 1343 b 434 1458 327 1333 408 1379 b 380 1468 444 1485 389 1492 b 252 1374 361 1413 311 1374 b 246 1343 230 1373 220 1346 z m 507 1261 b 506 1244 507 1255 506 1250 b 419 729 483 1072 453 900 b 273 198 383 551 345 367 b 186 66 257 160 229 84 b 171 78 175 61 175 59 b 168 141 166 100 167 118 b 193 628 171 303 184 465 b 163 1184 203 807 224 1012 b 6 1154 138 1253 -23 1231 b 43 614 69 989 47 787 b 41 311 40 513 35 412 b 78 101 45 243 44 162 b 273 96 128 9 216 11 b 444 603 370 241 407 436 b 474 745 455 650 465 698 b 472 591 473 694 472 643 b 481 267 472 483 474 375 b 530 -63 489 156 494 43 b 614 -55 543 -98 608 -89 b 626 267 634 51 626 160 b 628 603 626 379 626 491 b 665 1261 631 823 643 1042 b 507 1261 672 1333 514 1336 z "},"Û":{"ha":769,"x_min":0,"x_max":0,"o":"m 236 1347 b 405 1338 275 1431 376 1427 b 463 1349 413 1312 472 1319 b 185 1356 426 1478 227 1488 b 236 1347 176 1330 226 1325 z m 507 1261 b 506 1244 507 1255 506 1250 b 419 729 483 1072 453 900 b 273 198 383 551 345 367 b 186 66 256 160 229 84 b 171 78 175 61 175 59 b 168 141 166 100 167 118 b 193 628 171 303 184 465 b 163 1184 203 807 224 1012 b 6 1154 138 1253 -23 1231 b 43 614 69 989 47 787 b 41 311 40 513 35 412 b 78 101 45 243 44 162 b 273 96 128 9 216 11 b 444 603 370 241 407 436 b 474 745 455 650 465 698 b 472 591 473 694 472 643 b 481 267 472 483 474 375 b 530 -63 489 156 494 43 b 614 -55 543 -98 608 -89 b 626 267 634 51 626 160 b 628 603 626 379 626 491 b 665 1261 631 823 643 1042 b 507 1261 672 1333 514 1336 z "},"Ü":{"ha":769,"x_min":0,"x_max":0,"o":"m 171 1399 b 184 1387 175 1395 179 1391 b 200 1378 189 1384 195 1381 b 231 1372 210 1374 220 1372 b 253 1372 238 1370 246 1370 b 274 1376 260 1372 267 1373 b 292 1383 280 1377 286 1379 b 307 1393 298 1385 302 1389 b 317 1406 311 1396 315 1401 b 323 1420 321 1410 323 1415 b 323 1436 325 1426 325 1431 b 316 1454 322 1442 320 1448 b 306 1464 313 1458 310 1461 b 283 1479 300 1471 292 1476 b 264 1484 277 1481 271 1482 b 222 1484 250 1487 236 1487 b 184 1469 210 1482 193 1476 b 171 1457 179 1465 175 1461 b 163 1443 168 1453 165 1448 b 160 1428 162 1438 161 1433 b 163 1413 161 1423 162 1418 b 171 1399 165 1408 168 1404 z m 361 1399 b 373 1387 365 1395 369 1391 b 390 1378 379 1384 385 1381 b 421 1372 400 1374 410 1372 b 443 1372 428 1370 435 1370 b 463 1376 450 1372 457 1373 b 481 1383 470 1377 476 1379 b 496 1393 487 1385 492 1389 b 507 1406 501 1396 505 1401 b 512 1420 510 1410 512 1415 b 512 1436 514 1426 514 1431 b 506 1454 512 1442 510 1448 b 496 1464 503 1458 500 1461 b 473 1479 489 1471 482 1476 b 454 1484 467 1481 460 1482 b 411 1484 440 1487 425 1487 b 373 1469 400 1482 383 1476 b 361 1457 369 1465 365 1461 b 352 1443 358 1453 355 1448 b 349 1428 351 1438 350 1433 b 352 1413 350 1423 351 1418 b 361 1399 355 1408 358 1404 z m 507 1261 b 506 1244 507 1255 506 1250 b 419 729 483 1072 453 900 b 273 198 383 551 345 367 b 186 66 257 160 229 84 b 171 78 175 61 175 59 b 168 141 166 100 167 118 b 193 628 171 303 184 465 b 163 1184 203 807 224 1012 b 6 1154 138 1253 -23 1231 b 43 614 69 989 47 787 b 41 311 40 513 35 412 b 78 101 45 243 44 162 b 273 96 128 9 216 11 b 444 603 370 241 407 436 b 474 745 455 650 465 698 b 472 591 473 694 472 643 b 481 267 472 483 474 375 b 530 -63 489 156 494 43 b 614 -55 543 -98 608 -89 b 626 267 634 51 626 160 b 628 603 626 379 626 491 b 665 1261 631 823 643 1042 b 507 1261 672 1333 514 1336 z "},"Ý":{"ha":847,"x_min":0,"x_max":0,"o":"m 228 1370 b 416 1485 309 1361 390 1406 b 362 1496 425 1513 370 1520 b 234 1401 343 1440 293 1402 b 228 1370 212 1401 202 1373 z m 731 928 b 679 1263 721 1041 705 1153 b 519 1268 664 1324 546 1321 b 515 1261 517 1266 516 1264 b 515 1259 515 1261 515 1260 b 513 1244 514 1255 513 1250 b 453 745 492 1078 475 911 b 348 212 430 566 406 382 b 272 79 333 169 314 104 b 253 86 257 70 260 72 b 243 147 243 107 244 126 b 223 621 237 305 227 463 b 159 1184 217 805 222 1009 b 2 1154 134 1253 -28 1231 b 74 607 67 985 63 785 b 101 317 80 510 85 412 b 163 110 113 245 121 171 b 356 110 219 29 302 19 b 485 607 441 253 460 445 b 542 1092 510 768 528 930 b 570 488 575 893 580 687 b 520 132 565 369 558 246 b 372 -52 495 55 461 -35 b 379 -90 342 -58 351 -92 b 688 240 556 -81 644 89 b 731 928 752 461 751 701 z "},"ß":{"ha":936,"x_min":0,"x_max":0,"o":"m 805 681 b 674 894 785 763 742 841 b 584 945 649 914 618 932 b 654 1048 613 974 638 1009 b 665 1244 677 1106 691 1185 b 432 1266 621 1342 502 1325 b 259 938 338 1187 293 1052 b 168 465 214 784 187 624 b 159 380 165 437 162 408 b 152 591 155 450 153 521 b 199 1176 151 787 166 982 b 40 1176 210 1246 53 1250 b -4 579 8 979 -9 779 b 20 281 -2 480 6 379 b 92 -1 34 185 48 86 b 176 7 108 -31 172 -32 b 176 9 176 8 176 9 b 184 21 181 12 184 16 b 255 740 178 260 207 506 b 367 1105 280 864 312 990 b 449 1231 388 1150 414 1195 b 559 1278 468 1250 527 1300 b 545 1129 593 1255 558 1155 b 386 984 513 1063 457 1005 b 353 897 348 973 329 929 b 355 895 354 896 355 895 b 381 875 360 886 368 879 b 386 873 383 874 385 873 b 405 867 392 870 399 869 b 550 822 457 854 506 855 b 639 687 593 788 621 739 b 649 293 681 563 675 419 b 487 -16 629 193 582 39 b 330 214 355 -91 332 135 b 482 762 327 393 361 622 b 429 783 504 787 447 804 b 272 227 305 640 268 410 b 468 -83 275 106 301 -107 b 755 190 606 -63 705 70 b 805 681 819 344 846 517 z "},"à":{"ha":675,"x_min":0,"x_max":0,"o":"m 229 699 b 335 718 267 685 303 695 b 301 749 361 737 320 759 b 263 754 288 743 274 745 b 243 789 252 763 250 777 b 164 770 222 820 159 814 b 229 699 167 738 200 709 z m 679 468 b 530 55 657 376 585 55 b 556 574 493 55 544 493 b 359 593 568 659 394 668 b 251 646 331 623 294 643 b 163 21 -112 677 -108 17 b 338 300 250 23 303 157 b 519 6 345 148 386 -5 b 725 459 630 14 699 342 b 679 468 731 483 685 489 z m 182 63 b 260 586 105 60 92 585 b 336 508 298 584 328 534 b 182 63 301 345 239 68 z "},"á":{"ha":675,"x_min":0,"x_max":0,"o":"m 159 718 b 265 699 191 695 227 685 b 330 770 294 709 327 738 b 251 789 335 814 272 820 b 231 754 244 777 242 763 b 193 749 220 745 205 743 b 159 718 174 759 132 737 z m 679 468 b 530 55 657 376 585 55 b 556 574 493 55 544 493 b 359 593 568 659 394 668 b 251 646 331 623 294 643 b 163 21 -112 677 -108 17 b 338 300 250 23 303 157 b 519 6 345 148 386 -5 b 725 459 630 14 699 342 b 679 468 731 483 685 489 z m 182 63 b 260 586 105 60 92 585 b 336 508 298 584 328 534 b 182 63 301 345 239 68 z "},"â":{"ha":675,"x_min":0,"x_max":0,"o":"m 207 725 b 246 763 215 739 226 766 b 280 718 266 760 271 732 b 343 724 292 702 337 701 b 248 813 356 774 291 812 b 148 731 207 814 140 782 b 207 725 152 703 195 704 z m 679 468 b 530 55 657 376 585 55 b 556 574 493 55 544 493 b 359 593 568 659 394 668 b 251 646 331 623 294 643 b 163 21 -112 677 -108 17 b 338 300 250 23 303 157 b 519 6 345 148 386 -5 b 725 459 630 14 699 342 b 679 468 731 483 685 489 z m 182 63 b 260 586 105 60 92 585 b 336 508 298 584 328 534 b 182 63 301 345 239 68 z "},"ã":{"ha":675,"x_min":0,"x_max":0,"o":"m 111 713 b 233 709 125 776 201 720 b 308 703 257 701 283 698 b 408 796 356 712 399 746 b 345 802 414 827 356 820 b 289 750 332 780 317 755 b 216 771 264 745 238 762 b 139 788 191 781 166 790 b 60 718 98 786 58 762 b 111 713 61 696 107 692 z m 679 468 b 530 55 657 376 585 55 b 556 574 493 55 544 493 b 359 593 568 659 394 668 b 251 646 331 623 294 643 b 163 21 -112 677 -108 17 b 338 300 250 23 303 157 b 519 6 345 148 386 -5 b 725 459 630 14 699 342 b 679 468 731 483 685 489 z m 182 63 b 260 586 105 60 92 585 b 336 508 298 584 328 534 b 182 63 301 345 239 68 z "},"ä":{"ha":675,"x_min":0,"x_max":0,"o":"m 109 705 b 123 698 113 703 118 700 b 158 691 134 693 146 691 b 185 695 168 691 177 692 b 208 705 193 697 201 700 b 222 721 214 709 219 715 b 228 740 227 727 229 733 b 226 753 228 745 227 749 b 208 775 222 762 216 770 b 194 783 203 778 198 780 b 158 789 182 787 170 789 b 131 785 149 790 140 788 b 108 775 123 783 115 780 b 94 759 102 771 97 766 b 88 740 90 754 88 747 b 90 727 89 736 90 732 b 109 705 94 718 100 711 z m 269 705 b 283 698 273 703 278 700 b 318 691 294 693 306 691 b 345 695 328 691 337 692 b 368 705 354 697 361 700 b 383 721 374 709 379 715 b 389 740 387 727 389 733 b 386 753 388 745 387 749 b 368 775 382 762 376 770 b 354 783 363 778 359 780 b 318 789 342 787 331 789 b 291 785 309 790 300 788 b 269 775 283 783 276 780 b 254 759 262 771 257 766 b 248 740 250 754 248 747 b 251 727 249 736 250 732 b 269 705 254 718 261 711 z m 679 468 b 530 55 657 376 585 55 b 556 574 493 55 544 493 b 359 593 568 659 394 668 b 251 646 331 623 294 643 b 163 21 -112 677 -108 17 b 338 300 250 23 303 157 b 519 6 345 148 386 -5 b 725 459 630 14 699 342 b 679 468 731 483 685 489 z m 182 63 b 260 586 105 60 92 585 b 336 508 298 584 328 534 b 182 63 301 345 239 68 z "},"å":{"ha":675,"x_min":0,"x_max":0,"o":"m 258 694 b 327 756 292 697 327 719 b 256 823 326 794 293 824 b 234 816 249 822 240 821 b 232 816 233 816 232 816 b 178 749 200 809 174 783 b 258 694 183 710 222 691 z m 249 741 b 250 741 249 741 249 741 b 250 741 250 741 250 741 b 249 741 247 740 247 740 z m 247 779 b 253 775 249 778 251 777 b 260 758 257 770 259 764 b 254 743 260 752 259 747 b 252 741 254 743 252 742 b 250 741 251 741 250 741 b 251 741 250 741 251 741 b 250 741 251 741 250 741 b 250 741 250 741 250 741 b 249 741 251 741 250 741 b 246 743 248 741 249 740 b 242 756 244 746 242 751 b 247 779 241 763 243 772 z m 679 468 b 530 55 657 376 585 55 b 556 574 493 55 544 493 b 359 593 568 659 394 668 b 251 646 331 623 294 643 b 163 21 -112 677 -108 17 b 338 300 250 23 303 157 b 519 6 345 148 386 -5 b 725 459 630 14 699 342 b 679 468 731 483 685 489 z m 182 63 b 260 586 105 60 92 585 b 336 508 298 584 328 534 b 182 63 301 345 239 68 z "},"æ":{"ha":724,"x_min":0,"x_max":0,"o":"m 734 465 b 550 37 704 348 629 38 b 485 404 482 37 464 241 b 582 442 520 406 557 423 b 644 542 615 467 637 502 b 570 654 658 608 622 652 b 388 550 491 657 430 614 b 387 552 387 550 387 551 b 391 579 388 562 390 571 b 361 591 394 592 373 596 b 251 646 333 622 295 643 b 163 21 -112 677 -108 17 b 325 248 239 22 290 126 b 546 5 340 112 412 -3 b 776 457 675 13 744 324 b 734 465 782 479 738 484 z m 571 606 b 595 544 592 608 604 584 b 546 473 585 516 569 491 b 494 450 530 462 513 454 b 492 450 494 450 493 450 b 571 606 507 536 534 602 z m 182 63 b 260 586 105 60 92 585 b 336 508 298 584 328 534 b 182 63 301 345 239 68 z "},"ç":{"ha":371,"x_min":0,"x_max":0,"o":"m 423 457 b 380 465 428 479 385 484 b 196 37 351 348 275 38 b 218 606 85 36 109 593 b 239 545 239 608 248 585 b 291 533 231 510 282 503 b 217 654 312 606 272 652 b 121 14 -67 664 -119 92 b 131 -21 119 3 121 -10 b 181 -45 144 -35 163 -41 b 199 -51 186 -47 195 -47 b 200 -53 200 -51 200 -52 b 173 -101 174 -55 146 -79 b 268 -37 215 -135 302 -94 b 214 -3 257 -17 236 -8 b 184 5 206 -1 190 -1 b 193 5 187 5 190 5 b 423 457 321 13 390 324 z "},"è":{"ha":371,"x_min":0,"x_max":0,"o":"m 180 709 b 286 728 218 695 255 705 b 252 760 313 748 272 770 b 214 764 240 753 225 756 b 194 799 203 773 201 788 b 115 780 173 831 110 825 b 180 709 118 748 152 720 z m 380 465 b 196 37 351 348 275 38 b 132 404 129 37 111 241 b 228 442 167 406 204 423 b 291 542 262 467 284 502 b 217 654 305 608 269 652 b 193 5 -93 665 -126 -15 b 423 457 321 13 390 324 b 380 465 429 479 385 484 z m 218 606 b 241 544 239 608 251 584 b 192 473 232 516 216 491 b 141 450 177 462 159 454 b 139 450 140 450 139 450 b 218 606 154 536 181 602 z "},"é":{"ha":371,"x_min":0,"x_max":0,"o":"m 81 728 b 188 709 113 705 150 695 b 253 780 216 720 250 748 b 174 799 258 825 195 831 b 154 764 166 788 165 773 b 116 760 143 756 128 753 b 81 728 96 770 55 748 z m 380 465 b 196 37 351 348 275 38 b 132 404 129 37 111 241 b 228 442 167 406 204 423 b 291 542 262 467 284 502 b 217 654 305 608 269 652 b 193 5 -93 665 -126 -15 b 423 457 321 13 390 324 b 380 465 429 479 385 484 z m 218 606 b 241 544 239 608 251 584 b 192 473 232 516 216 491 b 141 450 177 462 159 454 b 139 450 140 450 139 450 b 218 606 154 536 181 602 z "},"ê":{"ha":371,"x_min":0,"x_max":0,"o":"m 148 736 b 186 773 156 749 166 776 b 221 729 206 770 211 742 b 283 734 232 712 277 712 b 188 823 296 785 231 822 b 88 741 147 824 80 792 b 148 736 93 713 136 715 z m 380 465 b 196 37 351 348 275 38 b 132 404 129 37 111 241 b 228 442 167 406 204 423 b 291 542 262 467 284 502 b 217 654 305 608 269 652 b 193 5 -93 665 -126 -15 b 423 457 321 13 390 324 b 380 465 429 479 385 484 z m 218 606 b 241 544 239 608 251 584 b 192 473 232 516 216 491 b 141 450 177 462 159 454 b 139 450 140 450 139 450 b 218 606 154 536 181 602 z "},"ë":{"ha":371,"x_min":0,"x_max":0,"o":"m 68 716 b 82 708 72 713 77 711 b 117 701 93 704 105 701 b 144 706 127 701 136 702 b 167 716 152 707 160 711 b 181 732 173 720 178 725 b 187 751 186 737 188 743 b 185 764 187 755 186 759 b 167 785 181 773 175 780 b 153 793 162 788 157 790 b 117 800 141 798 129 800 b 90 796 108 800 99 799 b 68 785 82 794 74 790 b 53 770 61 781 56 776 b 47 751 49 764 47 758 b 49 737 48 746 49 742 b 68 716 53 728 59 721 z m 228 716 b 242 708 232 713 237 711 b 277 701 253 704 265 701 b 304 706 287 701 296 702 b 327 716 313 707 320 711 b 342 732 334 720 338 725 b 348 751 346 737 348 743 b 345 764 347 755 346 759 b 327 785 341 773 335 780 b 313 793 322 788 318 790 b 277 800 301 798 290 800 b 250 796 268 800 259 799 b 228 785 242 794 235 790 b 213 770 221 781 216 776 b 207 751 209 764 207 758 b 210 737 208 746 209 742 b 228 716 213 728 220 721 z m 380 465 b 196 37 351 348 275 38 b 132 404 129 37 111 241 b 228 442 167 406 204 423 b 291 542 262 467 284 502 b 217 654 305 608 269 652 b 193 5 -93 665 -126 -15 b 423 457 321 13 390 324 b 380 465 429 479 385 484 z m 218 606 b 241 544 239 608 251 584 b 192 473 232 516 216 491 b 141 450 177 462 159 454 b 139 450 140 450 139 450 b 218 606 154 536 181 602 z "},"ì":{"ha":321,"x_min":0,"x_max":0,"o":"m 74 709 b 181 728 112 695 149 705 b 146 760 207 748 166 770 b 108 764 134 753 119 756 b 88 799 97 773 96 788 b 9 780 67 831 4 825 b 74 709 12 748 46 720 z m 325 468 b 176 55 302 376 231 55 b 201 574 138 55 190 493 b -2 574 214 665 12 669 b 165 6 -17 469 -70 -13 b 371 459 275 14 345 342 b 325 468 376 483 330 489 z "},"í":{"ha":321,"x_min":0,"x_max":0,"o":"m 90 709 b 155 780 118 720 152 748 b 76 799 160 825 97 831 b 56 764 68 788 67 773 b 18 760 45 756 30 753 b -16 728 -2 770 -43 748 b 90 709 15 705 52 695 z m 325 468 b 175 55 302 376 231 55 b 201 574 138 55 189 493 b -2 574 214 665 12 669 b 165 6 -17 469 -70 -13 b 371 459 275 14 345 342 b 325 468 376 483 330 489 z "},"î":{"ha":321,"x_min":0,"x_max":0,"o":"m 58 736 b 97 773 66 749 76 776 b 131 729 117 770 122 742 b 193 734 143 712 187 712 b 99 823 207 785 141 822 b -1 741 57 824 -9 792 b 58 736 3 713 46 715 z m 325 468 b 176 55 302 376 231 55 b 201 574 138 55 190 493 b -2 574 214 665 12 669 b 165 6 -17 469 -70 -13 b 371 459 275 14 345 342 b 325 468 376 483 330 489 z "},"ï":{"ha":321,"x_min":0,"x_max":0,"o":"m 24 701 b 51 706 34 701 43 702 b 74 716 59 707 67 711 b 88 732 80 720 85 725 b 94 751 93 737 95 743 b 92 764 94 755 93 759 b 74 785 88 773 82 780 b 60 793 69 788 64 790 b 24 800 48 798 36 800 b -3 795 15 800 6 799 b -25 785 -11 794 -19 790 b -40 769 -32 781 -37 776 b -46 751 -44 764 -46 758 b -44 737 -45 746 -44 742 b -25 716 -40 728 -34 721 b -11 708 -21 713 -16 711 b 24 701 0 704 12 701 z m 135 716 b 149 708 139 713 144 711 b 184 701 160 704 172 701 b 211 706 194 701 203 702 b 234 716 220 707 227 711 b 249 732 240 720 245 725 b 255 751 253 737 255 743 b 252 764 254 755 253 759 b 234 785 248 773 242 780 b 220 793 229 788 225 790 b 184 800 208 798 197 800 b 157 796 175 800 166 799 b 135 785 149 794 142 790 b 120 770 128 781 123 776 b 114 751 116 764 114 758 b 117 737 115 746 116 742 b 135 716 120 728 126 721 z m 326 468 b 176 55 303 376 231 55 b 202 574 139 55 190 493 b -1 574 215 665 13 669 b 166 6 -16 469 -69 -13 b 372 459 276 14 346 342 b 326 468 377 483 331 489 z "},"ñ":{"ha":629,"x_min":0,"x_max":0,"o":"m 142 750 b 261 746 165 805 230 759 b 346 731 288 736 317 728 b 435 801 387 735 426 759 b 366 814 443 837 372 845 b 173 823 353 755 218 825 b 81 762 132 820 96 801 b 142 750 70 732 131 724 z m 638 471 b 591 231 621 391 611 310 b 511 49 580 188 559 84 b 510 49 510 49 510 49 b 369 655 450 55 619 704 b 148 239 284 638 202 415 b 152 302 149 260 150 281 b 183 586 159 397 168 492 b 3 586 197 669 16 673 b -19 290 -11 488 -23 390 b 40 22 -16 206 -9 93 b 129 30 58 -5 117 -1 b 136 54 132 38 134 46 b 137 56 136 55 136 56 b 371 625 169 165 297 621 b 477 0 433 628 100 -41 b 504 10 485 1 495 5 b 613 159 565 27 594 101 b 678 463 644 258 656 361 b 638 471 682 484 641 489 z "},"ò":{"ha":444,"x_min":0,"x_max":0,"o":"m 163 709 b 269 728 201 695 237 705 b 235 760 295 748 254 770 b 197 764 222 753 208 756 b 177 799 186 773 184 788 b 98 780 156 831 93 825 b 163 709 101 748 134 720 z m 470 475 b 343 418 431 453 388 431 b 301 558 336 468 322 517 b 187 641 278 603 240 640 b 75 556 134 642 87 608 b 73 525 73 546 72 535 b 22 497 52 521 34 512 b 39 42 -69 381 -88 140 b 223 17 89 3 162 -6 b 315 132 270 34 298 87 b 346 384 342 204 353 296 b 501 454 401 398 453 425 b 470 475 524 468 486 484 z m 122 549 b 217 597 131 593 176 623 b 279 489 251 574 268 527 b 295 408 286 463 291 436 b 191 425 260 405 225 408 b 187 427 190 426 189 426 b 189 429 188 428 188 428 b 121 526 230 480 179 519 b 122 549 120 534 121 542 z m 275 159 b 215 52 264 121 250 74 b 149 99 176 27 156 62 b 167 395 131 186 125 311 b 298 375 210 375 255 370 b 275 159 303 302 295 226 z "},"ó":{"ha":444,"x_min":0,"x_max":0,"o":"m 106 728 b 212 709 138 705 174 695 b 277 780 241 720 274 748 b 198 799 282 825 219 831 b 178 764 191 788 190 773 b 140 760 167 756 153 753 b 106 728 121 770 79 748 z m 470 475 b 343 418 431 453 388 431 b 301 558 336 468 322 517 b 187 641 278 603 240 640 b 75 556 134 642 87 608 b 73 525 73 546 72 535 b 22 497 52 521 34 512 b 39 42 -69 381 -88 140 b 223 17 89 3 162 -6 b 315 132 270 34 298 87 b 346 384 342 204 353 296 b 501 454 401 398 453 425 b 470 475 524 468 486 484 z m 122 549 b 217 597 131 593 176 623 b 279 489 251 574 268 527 b 295 408 286 463 291 436 b 191 425 260 405 225 408 b 187 427 190 426 189 426 b 189 429 188 428 188 428 b 121 526 230 480 179 519 b 122 549 120 534 121 542 z m 275 159 b 215 52 264 121 250 74 b 149 99 176 27 156 62 b 167 395 131 186 125 311 b 298 375 211 375 255 370 b 275 159 303 302 295 226 z "},"ô":{"ha":444,"x_min":0,"x_max":0,"o":"m 150 736 b 188 773 158 749 168 776 b 223 729 209 770 214 742 b 285 734 235 712 279 712 b 191 823 298 785 233 822 b 90 741 149 824 82 792 b 150 736 95 713 138 715 z m 470 475 b 343 418 431 453 388 431 b 301 558 336 468 322 517 b 187 641 278 603 240 640 b 75 556 134 642 87 608 b 73 525 73 546 72 535 b 22 497 52 521 34 512 b 39 42 -69 381 -88 140 b 223 17 89 3 162 -6 b 315 132 270 34 298 87 b 346 384 342 204 353 296 b 501 454 401 398 453 425 b 470 475 524 468 486 484 z m 122 549 b 217 597 131 593 176 623 b 279 489 251 574 268 527 b 295 408 286 463 291 436 b 191 425 260 405 225 408 b 187 427 190 426 189 426 b 189 429 188 428 188 428 b 121 526 230 480 179 519 b 122 549 120 534 121 542 z m 275 159 b 215 52 264 121 250 74 b 149 99 176 27 156 62 b 167 395 131 186 125 311 b 298 375 211 375 255 370 b 275 159 303 302 295 226 z "},"õ":{"ha":444,"x_min":0,"x_max":0,"o":"m 57 723 b 178 720 71 786 147 730 b 253 713 202 711 228 708 b 354 806 302 723 345 757 b 291 812 359 837 301 830 b 235 760 278 790 262 765 b 162 782 209 755 184 773 b 84 799 137 792 112 800 b 6 728 43 796 4 773 b 57 723 6 706 52 702 z m 470 475 b 343 418 431 453 388 431 b 301 558 336 468 322 517 b 187 641 278 603 240 640 b 75 556 134 642 87 608 b 73 525 73 546 72 535 b 22 497 52 521 34 512 b 39 42 -69 381 -88 140 b 223 17 89 3 162 -6 b 315 132 270 34 298 87 b 346 384 342 204 353 296 b 501 454 401 398 453 425 b 470 475 524 468 486 484 z m 122 549 b 217 597 131 593 176 623 b 279 489 251 574 268 527 b 295 408 286 463 291 436 b 191 425 260 405 225 408 b 187 427 190 426 189 426 b 189 429 188 428 188 428 b 121 526 230 480 179 519 b 122 549 120 534 121 542 z m 275 159 b 215 52 264 121 250 74 b 149 99 176 27 156 62 b 167 395 131 186 125 311 b 298 375 210 375 255 370 b 275 159 303 302 295 226 z "},"ö":{"ha":444,"x_min":0,"x_max":0,"o":"m 44 716 b 58 708 49 713 53 711 b 93 701 69 704 81 701 b 121 706 103 701 112 702 b 143 716 129 707 136 711 b 158 732 150 720 154 725 b 164 751 162 737 164 743 b 161 764 163 755 162 759 b 143 785 157 773 151 780 b 129 793 138 788 134 790 b 94 800 118 798 106 800 b 66 796 84 800 75 799 b 44 785 58 794 51 790 b 29 770 37 781 33 776 b 23 751 25 764 23 758 b 26 737 24 746 25 742 b 44 716 30 728 36 721 z m 204 716 b 218 708 209 713 213 711 b 254 701 230 704 241 701 b 281 706 263 701 272 702 b 303 716 289 707 296 711 b 318 732 310 720 315 725 b 324 751 322 737 324 743 b 321 764 323 755 322 759 b 303 785 318 773 312 780 b 289 793 299 788 294 790 b 254 800 278 798 266 800 b 227 796 244 800 235 799 b 204 785 218 794 211 790 b 189 770 198 781 193 776 b 183 751 185 764 183 758 b 186 737 184 746 185 742 b 204 716 190 728 196 721 z m 470 475 b 343 418 431 453 388 431 b 301 558 336 468 322 517 b 187 641 278 603 240 640 b 75 556 134 642 87 608 b 73 525 73 546 72 535 b 22 497 52 521 34 512 b 39 42 -69 381 -88 140 b 223 17 89 3 162 -6 b 315 132 270 34 298 87 b 346 384 342 204 353 296 b 501 454 401 398 453 425 b 470 475 524 468 486 484 z m 122 549 b 217 597 131 593 176 623 b 279 489 251 574 268 527 b 295 408 286 463 291 436 b 191 425 260 405 225 408 b 187 427 190 426 189 426 b 189 429 188 428 188 428 b 121 526 230 480 179 519 b 122 549 120 534 121 542 z m 275 159 b 215 52 264 121 250 74 b 149 99 176 27 156 62 b 167 395 131 186 125 311 b 298 375 210 375 255 370 b 275 159 303 302 295 226 z "},"÷":{"ha":453,"x_min":0,"x_max":0,"o":"m 363 507 b 82 504 270 509 175 513 b 82 479 65 502 65 481 b 363 475 175 470 270 477 b 363 507 390 475 390 506 z m 178 572 b 195 562 184 568 190 565 b 238 554 209 557 223 554 b 270 559 249 554 260 556 b 297 572 280 561 289 566 b 315 591 305 576 311 583 b 322 613 320 597 322 605 b 319 629 321 618 320 624 b 297 655 314 640 307 648 b 280 664 292 658 286 661 b 238 672 267 670 253 672 b 205 667 227 673 216 671 b 178 655 195 665 186 661 b 161 636 170 650 165 644 b 153 613 156 629 153 622 b 156 598 154 608 155 603 b 178 572 161 587 168 578 z m 295 411 b 278 420 289 414 283 417 b 235 428 264 425 250 428 b 203 423 224 428 213 427 b 176 411 193 421 184 417 b 158 392 168 406 162 400 b 151 369 153 385 151 378 b 154 353 152 364 153 358 b 176 327 159 342 166 334 b 193 318 181 324 187 321 b 235 310 206 312 221 310 b 268 315 246 309 257 311 b 295 327 278 317 287 321 b 312 346 303 332 308 338 b 320 369 317 353 320 360 b 317 385 319 374 318 379 b 295 411 312 395 305 404 z "},"ø":{"ha":444,"x_min":0,"x_max":0,"o":"m 470 475 b 343 418 431 453 388 431 b 301 558 336 468 322 517 b 295 569 299 561 297 565 b 329 714 308 617 319 665 b 269 725 335 744 278 751 b 239 626 258 693 248 660 b 187 641 224 635 206 640 b 75 556 134 642 87 608 b 73 525 73 546 72 535 b 22 497 52 521 34 512 b 39 42 -69 381 -88 140 b 83 18 52 32 67 24 b 69 -40 79 -2 74 -21 b 120 -50 63 -66 114 -72 b 137 5 126 -31 131 -13 b 223 17 166 3 195 7 b 315 132 270 34 298 87 b 346 384 342 204 353 296 b 501 454 401 398 453 425 b 470 475 524 468 486 484 z m 275 500 b 279 489 277 496 278 492 b 295 408 286 463 291 436 b 250 408 280 407 265 407 b 275 500 258 439 267 469 z m 122 549 b 217 597 131 593 176 623 b 228 588 221 594 225 591 b 201 480 219 552 210 516 b 121 526 191 504 157 522 b 122 549 120 534 121 542 z m 136 227 b 167 395 135 287 143 348 b 178 391 171 394 175 392 b 166 343 174 375 170 359 b 136 227 156 305 145 266 z m 275 159 b 215 52 264 121 250 74 b 156 74 185 33 167 49 b 228 331 181 160 205 245 b 240 375 232 346 236 360 b 298 375 259 373 279 373 b 275 159 303 302 295 226 z "},"ù":{"ha":643,"x_min":0,"x_max":0,"o":"m 222 709 b 328 728 260 695 296 705 b 294 760 354 748 313 770 b 256 764 281 753 267 756 b 236 799 245 773 243 788 b 157 780 215 831 152 825 b 222 709 160 748 193 720 z m 647 468 b 498 55 624 376 553 55 b 524 574 461 55 512 493 b 327 593 536 659 363 668 b 324 590 326 592 325 591 b 323 583 324 588 323 585 b 323 582 323 583 323 583 b 157 92 296 473 210 86 b 182 584 129 95 170 491 b -4 584 193 671 7 674 b 144 48 -19 468 -36 43 b 305 356 221 50 272 206 b 487 6 305 188 337 -6 b 693 459 597 14 667 342 b 647 468 698 483 652 489 z "},"ú":{"ha":643,"x_min":0,"x_max":0,"o":"m 159 728 b 265 709 191 705 227 695 b 331 780 294 720 327 748 b 252 799 335 825 272 831 b 231 764 244 788 243 773 b 194 760 221 756 206 753 b 159 728 174 770 133 748 z m 647 468 b 498 55 624 376 553 55 b 524 574 461 55 512 493 b 327 593 536 659 363 668 b 324 590 326 592 325 591 b 323 583 324 588 323 585 b 323 582 323 583 323 583 b 157 92 296 473 210 86 b 182 584 129 95 170 491 b -4 584 193 671 7 674 b 144 48 -19 468 -36 43 b 305 356 221 50 272 206 b 487 6 305 188 337 -6 b 693 459 597 14 667 342 b 647 468 698 483 652 489 z "},"û":{"ha":643,"x_min":0,"x_max":0,"o":"m 215 736 b 253 773 223 749 233 776 b 288 729 273 770 278 742 b 350 734 299 712 344 712 b 255 823 363 785 298 822 b 155 741 214 824 147 792 b 215 736 160 713 202 715 z m 647 468 b 498 55 624 376 553 55 b 524 574 461 55 512 493 b 327 593 536 659 363 668 b 324 590 326 592 325 591 b 323 583 324 588 323 585 b 323 582 323 583 323 583 b 157 92 296 473 210 86 b 182 584 129 95 170 491 b -4 584 193 671 7 674 b 144 48 -19 468 -36 43 b 305 356 221 50 272 206 b 487 6 305 188 337 -6 b 693 459 597 14 667 342 b 647 468 698 483 652 489 z "},"ü":{"ha":643,"x_min":0,"x_max":0,"o":"m 143 716 b 157 708 148 713 152 711 b 193 701 169 704 180 701 b 220 706 202 701 211 702 b 242 716 228 707 235 711 b 257 732 249 720 254 725 b 263 751 261 737 263 743 b 260 764 262 755 261 759 b 242 785 257 773 250 780 b 228 793 238 788 233 790 b 193 800 217 798 205 800 b 166 796 183 800 174 799 b 143 785 157 794 150 790 b 128 770 136 781 132 776 b 122 751 124 764 122 758 b 125 737 123 746 124 742 b 143 716 129 728 135 721 z m 303 716 b 317 708 308 713 313 711 b 353 701 329 704 341 701 b 380 706 362 701 371 702 b 402 716 388 707 396 711 b 417 732 409 720 414 725 b 423 751 421 737 423 743 b 421 764 422 755 421 759 b 402 785 417 773 411 780 b 388 793 398 788 393 790 b 353 800 377 798 365 800 b 326 796 343 800 334 799 b 303 785 318 794 310 790 b 289 770 297 781 292 776 b 283 751 284 764 282 758 b 285 737 283 746 284 742 b 303 716 289 728 295 721 z m 647 468 b 498 55 624 376 553 55 b 524 574 461 55 512 493 b 327 593 536 659 363 668 b 324 590 326 592 325 591 b 323 583 324 588 323 585 b 323 582 323 583 323 583 b 157 92 296 473 210 86 b 182 584 129 95 170 491 b -4 584 193 671 7 674 b 144 48 -19 468 -36 43 b 305 356 221 50 272 206 b 487 6 305 188 337 -6 b 693 459 597 14 667 342 b 647 468 698 483 652 489 z "},"ý":{"ha":657,"x_min":0,"x_max":0,"o":"m 165 728 b 271 709 196 705 233 695 b 336 780 299 720 333 748 b 257 799 341 825 278 831 b 237 764 250 788 248 773 b 199 760 226 756 211 753 b 165 728 180 770 138 748 z m 672 452 b 527 215 639 365 586 288 b 515 572 526 334 521 453 b 322 580 510 661 329 662 b 157 92 295 467 209 86 b 182 584 129 95 170 491 b -4 584 193 671 7 674 b 144 48 -19 468 -36 43 b 327 466 240 50 295 294 b 337 51 333 327 338 189 b 336 0 337 34 337 17 b 300 -42 324 -14 312 -28 b 64 -562 185 -177 33 -371 b 232 -684 77 -647 148 -702 b 366 -593 288 -673 331 -635 b 518 -102 480 -457 506 -272 b 527 147 524 -19 527 64 b 713 444 605 237 676 333 b 672 452 720 465 679 470 z m 326 -219 b 307 -451 320 -296 319 -375 b 257 -610 298 -505 293 -567 b 212 -644 245 -625 231 -639 b 120 -518 143 -659 119 -569 b 334 -74 121 -350 229 -200 b 326 -219 333 -122 330 -171 z "},"ÿ":{"ha":657,"x_min":0,"x_max":0,"o":"m 116 716 b 130 708 120 713 125 711 b 165 701 141 704 153 701 b 192 706 175 701 184 702 b 215 716 201 707 208 711 b 230 732 222 720 226 725 b 236 751 234 737 236 743 b 233 764 235 755 234 759 b 215 785 229 773 223 780 b 201 793 210 788 206 790 b 165 800 189 798 178 800 b 138 796 156 800 147 799 b 116 785 130 794 123 790 b 101 770 109 781 104 776 b 95 751 97 764 95 758 b 98 737 96 746 97 742 b 116 716 102 728 108 721 z m 276 716 b 290 708 281 713 285 711 b 326 701 301 704 313 701 b 353 706 335 701 344 702 b 375 716 361 707 368 711 b 390 732 382 720 387 725 b 396 751 394 737 396 743 b 393 764 395 755 394 759 b 375 785 389 773 383 780 b 361 793 371 788 366 790 b 326 800 350 798 338 800 b 299 796 316 800 307 799 b 276 785 290 794 283 790 b 261 770 269 781 265 776 b 255 751 257 764 255 758 b 258 737 256 746 257 742 b 276 716 262 728 268 721 z m 672 452 b 527 215 639 365 586 288 b 515 572 526 334 521 453 b 322 580 510 661 329 662 b 157 92 295 467 209 86 b 182 584 129 95 170 491 b -4 584 193 671 7 674 b 144 48 -19 468 -36 43 b 327 466 240 50 295 294 b 337 51 333 327 338 189 b 336 0 337 34 337 17 b 300 -42 324 -14 312 -28 b 64 -562 185 -177 33 -371 b 232 -684 77 -647 148 -702 b 366 -593 288 -673 331 -635 b 518 -102 480 -457 506 -272 b 527 147 524 -19 527 64 b 713 444 605 237 676 333 b 672 452 720 465 679 470 z m 326 -219 b 307 -451 320 -296 319 -375 b 257 -610 298 -505 293 -567 b 212 -644 245 -625 231 -639 b 120 -518 143 -659 119 -569 b 334 -74 121 -350 229 -200 b 326 -219 333 -122 330 -171 z "},"Œ":{"ha":1322,"x_min":0,"x_max":0,"o":"m 1184 101 b 952 -55 1147 14 1060 -95 b 888 26 926 -46 898 -11 b 1049 218 861 133 953 203 b 1109 292 1083 224 1122 254 b 1099 309 1106 298 1103 304 b 1020 343 1083 332 1046 341 b 869 441 958 347 904 380 b 822 683 827 514 821 601 b 993 1184 824 857 883 1047 b 1077 1253 1017 1214 1044 1233 b 1151 1130 1159 1303 1161 1188 b 1188 1127 1148 1115 1184 1113 b 1150 1290 1201 1181 1209 1259 b 1018 1298 1114 1309 1056 1309 b 788 1101 919 1268 842 1186 b 655 743 723 1002 673 873 b 603 1007 645 834 627 923 b 447 1279 576 1104 533 1219 b 175 1237 359 1340 250 1302 b -34 779 47 1125 -17 944 b 109 403 -49 640 -25 473 b 154 25 92 276 93 140 b 461 -78 210 -81 351 -145 b 614 158 543 -28 588 70 b 666 508 646 269 663 388 b 697 422 673 478 684 449 b 840 272 731 354 780 305 b 752 181 804 249 774 219 b 761 -33 713 115 711 28 b 979 -102 816 -101 897 -111 b 1227 93 1104 -88 1186 -30 b 1184 101 1234 115 1191 119 z m 581 289 b 480 12 566 195 542 88 b 335 22 434 -45 366 -45 b 313 424 279 143 292 297 b 374 639 325 497 345 570 b 414 722 385 667 398 696 b 442 760 423 735 432 748 b 462 782 447 766 468 787 b 319 882 557 862 389 941 b 123 486 203 784 151 630 b 115 444 120 472 118 458 b 14 743 27 509 8 638 b 152 1143 21 882 70 1030 b 400 1260 202 1213 306 1316 b 534 1034 475 1215 509 1112 b 581 289 609 800 620 531 z "},"œ":{"ha":726,"x_min":0,"x_max":0,"o":"m 735 465 b 551 37 706 348 631 38 b 487 404 484 37 466 241 b 584 442 522 406 559 423 b 646 542 617 467 639 502 b 572 654 660 608 624 652 b 338 425 448 659 369 553 b 316 516 333 457 326 488 b 229 631 301 562 276 611 b 95 601 185 651 126 640 b 71 525 76 579 70 552 b 21 497 51 521 33 512 b 19 59 -64 388 -88 161 b 210 13 71 9 140 -5 b 303 106 255 25 284 66 b 334 202 317 135 327 168 b 548 5 359 87 429 -2 b 778 457 677 13 745 324 b 735 465 784 479 740 484 z m 573 606 b 597 544 594 608 606 584 b 547 473 587 516 571 491 b 496 450 532 462 515 454 b 494 450 495 450 495 450 b 573 606 509 536 536 602 z m 139 587 b 287 444 220 675 278 496 b 292 409 289 432 291 421 b 185 428 255 407 217 411 b 186 429 185 428 186 429 b 119 526 227 479 176 518 b 139 587 117 548 123 570 z m 268 140 b 201 45 256 104 239 62 b 146 106 164 29 152 75 b 165 396 130 192 123 313 b 295 375 204 377 251 372 b 268 140 301 296 292 215 z "},"Š":{"ha":682,"x_min":0,"x_max":0,"o":"m 505 1446 b 453 1456 513 1473 463 1477 b 284 1465 414 1372 313 1375 b 226 1454 276 1491 218 1484 b 505 1446 264 1324 463 1314 z m 286 645 b 155 1071 188 760 117 917 b 259 1233 171 1134 208 1191 b 469 1248 316 1280 404 1277 b 505 925 597 1189 627 1007 b 554 891 470 902 528 870 b 635 1121 623 945 653 1036 b 455 1302 615 1214 544 1277 b -14 995 240 1362 36 1199 b 430 237 -97 654 288 485 b 433 -3 471 167 488 65 b 224 -3 378 -69 280 -63 b 182 186 177 47 161 121 b 134 195 190 210 142 216 b 433 -66 58 12 264 -154 b 567 307 574 8 640 161 b 286 645 501 438 381 534 z "},"š":{"ha":335,"x_min":0,"x_max":0,"o":"m 150 716 b 250 798 191 715 258 747 b 191 804 246 826 203 824 b 152 766 183 790 172 763 b 118 810 132 769 127 797 b 55 805 106 827 61 828 b 150 716 42 755 107 717 z m 344 478 b 181 344 284 444 228 397 b 118 435 157 374 134 405 b 136 589 98 476 95 558 b 218 523 189 630 222 573 b 266 523 216 500 263 501 b 97 625 279 628 182 669 b -12 502 49 600 7 553 b 23 292 -43 423 -24 359 b 87 198 39 270 64 235 b 86 197 86 198 86 198 b 92 12 63 146 32 51 b 278 112 159 -31 264 47 b 200 319 294 190 249 256 b 363 464 247 374 303 420 b 344 478 377 474 353 483 z m 137 40 b 91 78 115 19 92 52 b 107 164 90 106 97 136 b 137 40 137 111 157 60 z "},"Ÿ":{"ha":847,"x_min":0,"x_max":0,"o":"m 157 1427 b 170 1415 162 1423 166 1419 b 187 1406 176 1412 181 1409 b 217 1399 197 1402 207 1399 b 239 1399 225 1398 232 1398 b 260 1403 247 1399 253 1400 b 278 1410 267 1404 273 1407 b 293 1421 284 1413 289 1416 b 304 1434 298 1424 301 1428 b 309 1448 307 1438 309 1443 b 309 1463 311 1453 311 1458 b 302 1481 309 1470 306 1476 b 293 1492 300 1485 296 1489 b 270 1506 286 1498 279 1503 b 251 1512 264 1508 257 1510 b 208 1512 237 1515 222 1515 b 170 1496 196 1510 180 1504 b 157 1485 166 1493 162 1489 b 149 1471 155 1480 152 1476 b 146 1456 148 1466 147 1461 b 149 1440 147 1451 148 1445 b 157 1427 152 1436 155 1431 z m 347 1427 b 360 1415 351 1423 356 1419 b 377 1406 365 1412 371 1409 b 407 1399 386 1402 397 1399 b 429 1399 414 1398 422 1398 b 450 1403 436 1399 443 1400 b 468 1410 456 1404 462 1407 b 483 1421 474 1413 479 1416 b 493 1434 488 1424 491 1428 b 499 1448 497 1438 499 1443 b 499 1463 501 1453 501 1458 b 492 1481 498 1470 496 1476 b 482 1492 489 1485 486 1489 b 460 1506 476 1498 468 1503 b 440 1512 453 1508 447 1510 b 398 1512 426 1515 412 1515 b 360 1496 386 1510 370 1504 b 347 1485 356 1493 351 1489 b 339 1471 344 1480 342 1476 b 336 1456 338 1466 337 1461 b 339 1440 337 1451 338 1445 b 347 1427 342 1436 344 1431 z m 731 928 b 679 1263 721 1041 705 1153 b 519 1268 664 1324 546 1321 b 515 1261 517 1266 516 1264 b 515 1259 515 1261 515 1260 b 513 1244 514 1255 513 1250 b 453 745 492 1078 475 911 b 348 211 430 566 406 382 b 272 79 333 169 314 104 b 253 86 257 70 260 72 b 243 147 243 107 244 126 b 223 621 237 305 227 463 b 158 1184 217 805 222 1009 b 2 1154 134 1253 -28 1231 b 74 607 67 985 63 785 b 101 317 80 510 85 412 b 163 110 113 245 121 171 b 356 110 219 29 302 19 b 485 607 441 253 460 445 b 542 1092 510 768 528 930 b 570 488 575 893 580 687 b 520 132 565 369 558 245 b 372 -52 495 55 461 -35 b 379 -91 342 -58 351 -92 b 688 240 556 -81 644 89 b 731 928 752 461 751 701 z "},"Ź":{"ha":675,"x_min":0,"x_max":0,"o":"m 147 1370 b 336 1485 228 1361 309 1406 b 281 1496 345 1513 290 1520 b 153 1401 262 1440 212 1402 b 147 1370 131 1401 121 1373 z m 569 -49 b 322 24 480 -49 396 -24 b 370 67 340 38 356 52 b 544 361 450 151 505 252 b 594 1046 618 573 658 827 b 454 1265 570 1128 529 1219 b 202 1290 379 1310 284 1316 b 15 636 -50 1210 -44 840 b 63 645 21 615 69 620 b 133 1198 22 813 7 1061 b 359 1243 184 1253 292 1297 b 440 1090 402 1207 425 1142 b 439 576 485 929 471 738 b 235 93 406 408 342 230 b 81 168 190 133 144 170 b 63 -64 -67 165 -78 -34 b 278 -8 134 -79 212 -50 b 331 -41 295 -20 312 -32 b 569 -94 406 -78 487 -95 b 569 -49 610 -94 610 -48 z m 146 3 b 81 -18 126 -10 109 -24 b 25 64 45 -10 23 29 b 138 103 29 130 95 130 b 203 54 161 88 182 71 b 146 3 186 34 167 16 z "},"ž":{"ha":507,"x_min":0,"x_max":0,"o":"m 154 716 b 254 798 196 715 262 747 b 195 804 250 826 207 824 b 156 766 187 790 177 763 b 122 810 136 769 131 797 b 60 805 110 827 66 828 b 154 716 46 755 112 717 z m 521 452 b 366 203 485 361 429 280 b 236 359 333 262 289 315 b 297 443 263 381 286 408 b 249 614 316 505 300 573 b -21 529 163 682 -11 657 b 15 526 -23 513 10 513 b 115 613 30 564 65 621 b 170 541 147 607 166 569 b 66 416 181 470 122 440 b 53 412 62 415 57 414 b 10 360 34 406 6 383 b 10 358 10 359 10 358 b 26 325 13 345 18 334 b 47 302 30 317 37 309 b 233 52 141 242 200 153 b 138 -55 200 17 168 -19 b -37 -314 71 -134 7 -219 b -79 -596 -75 -394 -112 -508 b 262 -587 -16 -763 170 -667 b 448 -131 392 -473 446 -300 b 387 161 449 -29 429 71 b 562 444 460 247 526 339 b 521 452 569 465 528 470 z m 122 418 b 123 418 122 418 123 418 b 125 417 124 418 125 418 b 122 418 124 418 123 418 z m 199 -481 b 114 -616 179 -530 157 -584 b 47 -645 96 -630 70 -645 b -32 -511 -17 -647 -34 -560 b 219 -30 -23 -325 104 -166 b 246 1 228 -20 237 -9 b 199 -481 282 -158 258 -337 z "},"–":{"ha":549,"x_min":0,"x_max":0,"o":"m 458 507 b 87 505 335 509 210 514 b 87 479 64 503 64 480 b 458 475 210 469 335 477 b 458 507 486 475 486 507 z "},"—":{"ha":669,"x_min":0,"x_max":0,"o":"m 579 507 b 87 505 416 509 249 517 b 87 479 64 503 64 480 b 579 475 249 466 416 477 b 579 507 607 475 607 507 z "},"“":{"ha":546,"x_min":0,"x_max":0,"o":"m 429 1145 b 420 1148 426 1146 423 1147 b 421 1150 420 1149 421 1149 b 471 1218 433 1178 458 1193 b 440 1247 480 1236 452 1247 b 331 1177 395 1245 355 1214 b 313 1054 308 1142 287 1092 b 451 1035 342 1010 410 1003 b 429 1145 495 1069 478 1127 z m 197 1145 b 188 1148 194 1146 191 1147 b 189 1150 189 1149 189 1149 b 240 1218 201 1178 226 1193 b 209 1247 249 1236 221 1247 b 99 1177 163 1245 124 1214 b 81 1054 76 1142 56 1092 b 219 1035 110 1010 179 1003 b 197 1145 264 1069 247 1127 z "},"„":{"ha":546,"x_min":0,"x_max":0,"o":"m 95 93 b 117 -17 51 59 68 0 b 126 -20 120 -18 123 -19 b 125 -22 126 -21 125 -22 b 75 -91 113 -50 88 -65 b 106 -119 66 -108 94 -119 b 215 -49 151 -118 191 -86 b 233 74 238 -14 259 36 b 95 93 204 118 135 124 z m 465 74 b 326 93 436 118 367 124 b 349 -17 282 59 299 0 b 357 -20 352 -18 354 -19 b 356 -22 357 -21 357 -22 b 306 -91 345 -50 320 -65 b 337 -119 297 -108 325 -119 b 447 -49 383 -118 422 -86 b 465 74 469 -14 490 36 z "},"•":{"ha":340,"x_min":0,"x_max":0,"o":"m 264 525 b 144 563 245 564 184 582 b 96 542 126 561 108 553 b 70 482 79 527 67 505 b 227 427 78 409 173 395 b 264 525 258 446 282 489 z m 150 493 b 151 494 151 493 151 494 b 150 493 150 492 150 492 z m 212 484 b 212 484 212 484 212 484 b 212 484 213 481 213 481 z "},"…":{"ha":790,"x_min":0,"x_max":0,"o":"m 197 97 b 182 106 192 100 187 103 b 144 113 170 110 158 113 b 116 108 134 113 125 112 b 91 97 107 106 99 103 b 76 80 85 93 79 87 b 69 60 71 75 69 68 b 72 46 70 56 71 51 b 91 23 76 37 83 29 b 107 15 96 20 102 18 b 144 8 119 10 131 8 b 173 12 154 7 164 9 b 197 23 182 14 190 18 b 213 40 204 27 209 33 b 219 60 217 46 220 53 b 217 74 218 65 218 70 b 197 97 213 84 206 91 z m 448 97 b 433 106 443 100 438 103 b 395 113 421 110 408 113 b 366 108 385 113 376 112 b 342 97 358 106 350 103 b 327 80 335 93 330 87 b 320 60 322 75 320 68 b 323 46 321 56 322 51 b 342 23 327 37 333 29 b 357 15 347 20 352 18 b 395 8 370 10 382 8 b 424 12 405 7 415 9 b 448 23 433 14 441 18 b 464 40 455 27 460 33 b 470 60 468 46 470 53 b 467 74 469 65 468 70 b 448 97 463 84 457 91 z m 718 74 b 699 97 714 84 708 91 b 684 106 694 100 689 103 b 646 113 672 110 659 113 b 617 108 636 113 626 112 b 593 97 608 106 600 103 b 577 80 586 93 581 87 b 571 60 573 75 571 68 b 574 46 572 56 573 51 b 593 23 578 37 584 29 b 608 15 598 20 603 18 b 646 8 620 10 633 8 b 675 12 656 7 666 9 b 699 23 684 14 692 18 b 715 40 706 27 711 33 b 721 60 719 46 721 53 b 718 74 720 65 719 70 z "},"‰":{"ha":1064,"x_min":0,"x_max":0,"o":"m 277 920 b 323 1025 309 944 320 988 b 221 1222 331 1097 308 1210 b 116 1163 176 1228 134 1199 b 168 894 50 1088 44 916 b 277 920 196 889 253 902 z m 259 1112 b 264 1118 261 1114 263 1116 b 272 1010 275 1083 277 1044 b 241 945 268 984 258 965 b 237 940 239 943 238 941 b 236 942 237 940 236 941 b 218 972 229 949 220 963 b 259 1112 204 1019 226 1079 z m 584 323 b 478 264 539 329 497 300 b 531 -5 413 189 406 17 b 640 21 559 -10 616 3 b 686 126 672 45 682 89 b 584 323 693 198 670 311 z m 635 111 b 604 46 630 85 621 66 b 600 41 602 44 601 42 b 598 43 599 41 599 42 b 580 73 592 50 583 64 b 622 213 567 120 589 180 b 627 219 624 215 626 217 b 635 111 638 184 640 145 z m 890 323 b 785 264 846 329 804 300 b 837 -5 719 189 713 17 b 946 21 866 -10 922 3 b 993 126 978 45 989 89 b 890 323 1000 198 977 311 z m 941 111 b 911 46 937 85 928 66 b 906 41 908 44 907 42 b 905 43 906 41 906 42 b 887 73 899 50 890 64 b 928 213 873 120 896 180 b 934 219 931 215 932 217 b 941 111 945 184 947 145 z m 620 1248 b 462 1278 638 1330 477 1349 b 314 600 415 1052 365 826 b 241 266 289 489 265 378 b 208 105 229 213 221 158 b 181 -66 196 49 173 -8 b 262 -81 186 -99 243 -107 b 324 83 297 -32 308 25 b 373 241 339 136 358 188 b 462 571 404 350 435 460 b 620 1248 519 796 571 1021 z "},"€":{"ha":750,"x_min":0,"x_max":0,"o":"m 635 626 b 583 334 620 528 605 430 b 487 86 563 249 539 157 b 324 178 403 -28 348 98 b 280 563 286 301 279 435 b 294 783 281 636 285 710 b 353 774 313 781 333 778 b 368 813 383 769 405 805 b 299 825 345 818 322 822 b 305 863 301 838 303 850 b 361 855 324 861 342 858 b 376 894 392 849 413 885 b 314 905 356 898 335 902 b 331 975 319 928 324 952 b 394 1139 346 1031 363 1090 b 425 1175 403 1152 412 1166 b 464 1085 478 1212 472 1118 b 500 1078 460 1066 495 1062 b 392 1234 528 1158 491 1254 b 255 1138 335 1222 288 1184 b 151 904 205 1069 173 988 b 96 895 132 902 114 899 b 109 860 62 888 82 857 b 141 864 120 862 131 863 b 133 822 138 850 136 836 b 87 814 118 820 102 818 b 101 780 54 807 73 776 b 127 783 109 781 118 782 b 115 677 121 747 118 712 b 169 174 102 514 101 325 b 451 11 220 62 321 -28 b 601 238 542 38 577 159 b 680 626 641 364 663 495 b 635 626 683 647 638 647 z "},"":{"ha":601,"x_min":0,"x_max":0,"o":"m 604 460 b 455 47 581 368 510 47 b 442 469 429 47 441 450 b 596 780 512 561 562 670 b 617 851 603 803 610 826 b 817 957 693 863 764 894 b 779 972 833 976 792 986 b 626 887 735 924 682 898 b 639 1123 643 965 653 1047 b 514 1220 628 1184 584 1242 b 356 1024 432 1194 385 1106 b 350 1123 357 1058 356 1091 b 225 1220 339 1184 295 1242 b 49 967 123 1188 74 1059 b 39 924 46 956 42 941 b -140 831 -28 911 -90 883 b -97 813 -158 811 -112 798 b 32 887 -59 852 -15 875 b 155 -2 -15 623 -61 -6 b 298 208 215 -1 263 98 b 444 -2 319 84 363 -4 b 650 451 554 0 624 334 b 604 460 655 475 609 481 z m 181 895 b 286 880 216 892 251 886 b 276 837 283 865 280 851 b 155 545 249 736 210 635 b 181 895 159 662 167 779 z m 565 837 b 444 545 538 736 499 635 b 465 849 448 647 455 748 b 567 846 499 845 533 844 b 565 837 567 843 566 840 z m 509 1120 b 576 1172 517 1148 543 1215 b 598 1038 602 1138 599 1079 b 576 881 596 985 588 933 b 470 885 541 879 505 881 b 474 923 471 898 473 911 b 509 1120 483 989 490 1056 z m 287 1172 b 308 1038 313 1138 310 1079 b 294 915 307 997 302 956 b 242 924 276 919 259 922 b 186 931 223 927 205 929 b 219 1120 194 994 202 1058 b 287 1172 227 1148 254 1215 z m 165 47 b 152 469 140 47 152 450 b 303 769 220 558 269 663 b 284 337 288 641 277 479 b 165 47 252 210 205 47 z "},"":{"ha":231,"x_min":0,"x_max":0,"o":"m 106 1287 b 82 602 95 1059 87 830 b 77 271 80 492 78 381 b 78 -84 75 156 60 30 b 122 -88 81 -101 118 -107 b 137 247 143 20 134 137 b 147 590 141 361 144 476 b 160 1287 154 822 157 1055 b 106 1287 161 1313 107 1313 z "},"":{"ha":676,"x_min":0,"x_max":0,"o":"m 542 505 b 538 544 541 518 540 531 b 535 564 537 551 536 557 b 532 581 534 570 530 602 b 343 601 522 663 362 668 b 244 646 317 626 283 643 b 156 21 -120 677 -115 17 b 357 424 267 23 325 247 b 331 -386 378 154 370 -120 b 263 -635 319 -472 292 -555 b 139 -808 239 -699 196 -768 b -307 -708 -9 -911 -213 -857 b -383 -489 -346 -647 -373 -569 b -357 -479 -374 -486 -366 -482 b -217 -223 -268 -437 -177 -328 b -371 -200 -244 -155 -324 -151 b -436 -464 -432 -263 -444 -367 b -490 -476 -454 -470 -472 -474 b -993 -416 -656 -503 -833 -458 b -1558 -262 -1182 -367 -1368 -307 b -2102 -229 -1732 -221 -1925 -183 b -2418 -579 -2276 -275 -2378 -408 b -2035 -727 -2424 -603 -2040 -748 b -1456 -328 -1989 -551 -2031 -200 b -843 -491 -1250 -373 -1051 -449 b -431 -505 -713 -517 -564 -540 b -403 -622 -425 -548 -414 -588 b 2 -898 -344 -800 -188 -913 b 387 -618 170 -886 307 -760 b 541 -25 486 -442 525 -224 b 542 505 554 151 555 329 z m 174 63 b 252 586 97 60 85 585 b 329 508 290 584 320 534 b 174 63 293 345 232 68 z m -354 -263 b -315 -210 -346 -246 -334 -219 b -281 -212 -301 -203 -296 -199 b -289 -358 -241 -246 -269 -322 b -386 -446 -311 -399 -346 -427 b -354 -263 -388 -382 -379 -318 z "},"":{"ha":310,"x_min":0,"x_max":0,"o":"m -2 698 b 17 687 4 694 10 691 b 64 678 32 681 48 678 b 101 684 77 678 89 680 b 131 698 112 687 122 691 b 151 719 140 703 146 710 b 159 745 156 726 159 735 b 155 762 158 750 157 756 b 131 791 150 774 142 784 b 112 802 125 795 118 798 b 64 811 97 808 81 811 b 28 805 52 811 40 809 b -2 791 17 803 7 798 b -22 770 -11 786 -18 779 b -30 745 -28 763 -30 754 b -27 727 -29 739 -28 733 b -2 698 -21 715 -13 705 z m 175 505 b 171 544 174 518 173 531 b 168 564 170 551 169 557 b 166 581 167 570 163 602 b -25 581 155 671 -35 668 b -35 -386 14 262 11 -68 b -104 -635 -48 -472 -74 -555 b -227 -808 -128 -699 -170 -768 b -673 -708 -376 -911 -579 -857 b -749 -489 -713 -647 -740 -569 b -724 -479 -741 -486 -732 -482 b -584 -223 -635 -437 -543 -328 b -737 -200 -610 -155 -691 -151 b -802 -464 -798 -263 -811 -367 b -857 -476 -820 -470 -839 -474 b -1359 -416 -1023 -503 -1199 -458 b -1925 -262 -1549 -367 -1735 -307 b -2469 -229 -2099 -221 -2292 -183 b -2785 -579 -2642 -275 -2744 -408 b -2401 -727 -2790 -603 -2407 -748 b -1823 -328 -2356 -551 -2398 -200 b -1210 -491 -1616 -373 -1417 -449 b -798 -505 -1080 -517 -930 -540 b -770 -622 -791 -548 -781 -588 b -364 -898 -710 -800 -554 -913 b 20 -618 -197 -886 -60 -760 b 174 -25 119 -442 159 -224 b 175 505 187 151 188 329 z m -721 -263 b -682 -210 -713 -246 -700 -219 b -647 -212 -668 -203 -663 -199 b -656 -358 -608 -246 -636 -322 b -752 -446 -678 -399 -713 -427 b -721 -263 -755 -382 -745 -318 z "},"":{"ha":663,"x_min":0,"x_max":0,"o":"m 528 505 b 524 544 527 518 526 531 b 521 564 523 551 522 557 b 518 581 520 570 516 602 b 328 585 508 669 323 668 b 162 92 302 479 215 86 b 186 584 133 95 174 491 b 0 584 197 671 12 674 b 148 48 -15 468 -32 43 b 337 496 251 50 306 324 b 317 -386 366 203 359 -97 b 249 -635 305 -472 279 -555 b 126 -808 225 -699 182 -768 b -321 -708 -23 -911 -227 -857 b -396 -489 -360 -647 -387 -569 b -371 -479 -388 -486 -380 -482 b -231 -223 -282 -437 -191 -328 b -385 -200 -257 -155 -338 -151 b -450 -464 -446 -263 -458 -367 b -504 -476 -468 -470 -486 -474 b -1007 -416 -670 -503 -847 -458 b -1572 -262 -1196 -367 -1382 -307 b -2116 -229 -1746 -221 -1939 -183 b -2432 -579 -2290 -275 -2392 -408 b -2049 -727 -2438 -603 -2054 -748 b -1470 -328 -2003 -551 -2045 -200 b -857 -491 -1264 -373 -1065 -449 b -445 -505 -727 -517 -578 -540 b -417 -622 -438 -548 -428 -588 b -12 -898 -358 -800 -202 -913 b 373 -618 156 -886 293 -760 b 527 -25 472 -442 511 -224 b 528 505 540 151 541 329 z m -368 -263 b -329 -210 -360 -246 -348 -219 b -295 -212 -315 -203 -310 -199 b -303 -358 -255 -246 -283 -322 b -400 -446 -325 -399 -360 -427 b -368 -263 -402 -382 -393 -318 z "},"":{"ha":300,"x_min":0,"x_max":0,"o":"m 854 919 b 519 1059 774 1019 640 1048 b 342 1062 460 1064 401 1064 b 335 1123 341 1083 339 1103 b 211 1220 324 1184 280 1242 b 57 1037 133 1196 86 1115 b -20 1027 31 1034 5 1030 b -798 917 -278 993 -538 945 b -1754 1291 -978 898 -1532 866 b -1973 1093 -1764 1311 -1996 1113 b -859 877 -1680 828 -1227 843 b 35 970 -649 897 -274 960 b 34 967 35 969 35 968 b 140 -2 -14 792 -102 -6 b 346 451 251 -1 320 334 b 300 460 351 475 305 481 b 151 47 277 368 206 47 b 138 469 125 47 137 450 b 292 780 208 561 258 670 b 335 956 310 835 326 895 b 537 755 478 931 564 871 b 854 919 532 736 869 900 z m 205 1120 b 272 1172 213 1148 239 1215 b 295 1060 294 1143 295 1098 b 189 1052 259 1058 224 1055 b 205 1120 193 1075 198 1098 z m 261 837 b 140 545 234 736 196 635 b 170 923 145 672 154 798 b 177 971 173 939 175 955 b 287 963 216 970 253 967 b 261 837 282 920 272 878 z "}}}
